<svg width="239" height="38" viewBox="0 0 239 38" fill="none" xmlns="http://www.w3.org/2000/svg">
<path d="M41.1743 7.52026C39.2939 3.38875 35.4008 0.581437 31.0574 0.157692C27.535 -0.160117 24.0656 0.740341 21.2848 2.72664C21.2583 2.75313 21.2318 2.77961 21.2053 2.77961C21.1788 2.75313 21.1524 2.72664 21.1259 2.72664C18.3186 0.740341 14.8492 -0.160117 11.3533 0.184176C6.98339 0.581437 3.11672 3.38875 1.20987 7.52026C-0.829406 11.9431 -0.273241 17.028 2.74594 21.8216C7.14229 28.8134 14.6638 33.7924 20.1989 36.7322L21.0729 37.1559V37.1824H21.0994H21.1259L22.1852 36.7587C27.7204 33.8189 35.2684 28.8399 39.6382 21.8481C42.6574 17.028 43.2136 11.9431 41.1743 7.52026ZM36.0364 19.3057C32.4081 25.1057 26.1049 29.4226 21.1524 32.1769V32.0975C16.1998 29.3696 9.97609 25.0527 6.37426 19.3057C4.22905 15.8892 3.8053 12.4198 5.12951 9.50656C6.34777 6.85816 8.94321 4.97779 11.724 4.71295C14.0281 4.50108 16.1998 5.00427 18.0008 6.03715C16.9414 7.54674 16.1998 9.24172 15.8291 11.0691C15.114 14.4326 15.6702 17.7166 17.2592 19.8089C18.2921 21.1595 19.6957 21.9011 21.1788 21.9276C21.1788 21.9276 21.1788 21.9276 21.2053 21.9276C21.2053 21.9276 21.2053 21.9276 21.2318 21.9276C22.7149 21.9276 24.1186 21.1595 25.1515 19.8089C26.767 17.7166 27.2967 14.4326 26.5816 11.0691C26.3168 9.79789 25.8665 8.57962 25.2574 7.44081C23.8802 8.20884 22.7414 9.29469 21.9204 10.6189C22.1058 11.0691 22.2382 11.5723 22.3441 12.0755C22.8473 14.4856 22.3441 16.2335 21.7615 16.9751C21.682 17.1075 21.4437 17.3723 21.2053 17.3723C20.967 17.3723 20.7551 17.081 20.6492 16.9751C20.0665 16.207 19.5633 14.4591 20.0665 12.0755C21.0464 7.33487 25.5222 4.26272 30.6601 4.73943C33.4674 5.00427 36.0629 6.88464 37.2547 9.53305C38.6054 12.4198 38.1551 15.8892 36.0364 19.3057Z" fill="#FF9C08"/>
<path d="M52.3745 25.2394V6.47793H59.3162C60.8172 6.47793 62.059 6.72809 63.0417 7.22839C64.0245 7.7287 64.757 8.41661 65.2395 9.29215C65.7219 10.1677 65.9631 11.1504 65.9631 12.2404C65.9631 13.2767 65.7309 14.2327 65.2663 15.1082C64.8017 15.9659 64.0781 16.6627 63.0953 17.1987C62.1126 17.7169 60.8529 17.976 59.3162 17.976H55.8052V25.2394H52.3745ZM55.8052 15.1886H59.1018C60.299 15.1886 61.1566 14.9295 61.6748 14.4113C62.2109 13.8753 62.4789 13.1516 62.4789 12.2404C62.4789 11.3112 62.2109 10.5876 61.6748 10.0694C61.1566 9.53337 60.299 9.26535 59.1018 9.26535H55.8052V15.1886Z" fill="#090909"/>
<path d="M68.5742 25.2394V5.94189H72.0049V13.9825C72.4516 13.2499 73.0502 12.6781 73.8006 12.2672C74.569 11.8383 75.4445 11.6239 76.4272 11.6239C78.0711 11.6239 79.3397 12.1421 80.2331 13.1784C81.1444 14.2148 81.6 15.7336 81.6 17.7348V25.2394H78.1962V18.0564C78.1962 16.9129 77.9639 16.0373 77.4993 15.4298C77.0526 14.8223 76.3379 14.5185 75.3552 14.5185C74.3903 14.5185 73.5862 14.858 72.943 15.537C72.3176 16.216 72.0049 17.163 72.0049 18.378V25.2394H68.5742Z" fill="#090909"/>
<path d="M86.7299 9.88179C86.1045 9.88179 85.5863 9.69418 85.1754 9.31895C84.7823 8.94372 84.5857 8.47022 84.5857 7.89844C84.5857 7.32667 84.7823 6.8621 85.1754 6.50474C85.5863 6.12951 86.1045 5.94189 86.7299 5.94189C87.3553 5.94189 87.8645 6.12951 88.2576 6.50474C88.6686 6.8621 88.8741 7.32667 88.8741 7.89844C88.8741 8.47022 88.6686 8.94372 88.2576 9.31895C87.8645 9.69418 87.3553 9.88179 86.7299 9.88179ZM85.0146 25.2394V11.9455H88.4452V25.2394H85.0146Z" fill="#090909"/>
<path d="M92.026 25.2394V5.94189H95.4567V25.2394H92.026Z" fill="#090909"/>
<path d="M103.545 25.561C102.402 25.561 101.464 25.3823 100.731 25.0249C99.9984 24.6497 99.4535 24.1583 99.0961 23.5508C98.7387 22.9433 98.5601 22.2733 98.5601 21.5407C98.5601 20.3078 99.0425 19.3072 100.007 18.5388C100.972 17.7705 102.42 17.3864 104.349 17.3864H107.726V17.0647C107.726 16.1535 107.467 15.4834 106.949 15.0546C106.431 14.6258 105.788 14.4113 105.019 14.4113C104.323 14.4113 103.715 14.5811 103.197 14.9206C102.679 15.2422 102.357 15.7246 102.232 16.3679H98.8817C98.971 15.403 99.2927 14.5632 99.8466 13.8485C100.418 13.1338 101.151 12.5888 102.044 12.2136C102.938 11.8205 103.938 11.6239 105.046 11.6239C106.94 11.6239 108.432 12.0974 109.522 13.0444C110.612 13.9914 111.157 15.3315 111.157 17.0647V25.2394H108.236L107.914 23.0952C107.521 23.8099 106.967 24.3996 106.252 24.8641C105.555 25.3287 104.653 25.561 103.545 25.561ZM104.323 22.8808C105.305 22.8808 106.065 22.5592 106.601 21.9159C107.155 21.2727 107.503 20.4775 107.646 19.5305H104.725C103.813 19.5305 103.161 19.7003 102.768 20.0398C102.375 20.3614 102.178 20.7634 102.178 21.2459C102.178 21.764 102.375 22.1661 102.768 22.4519C103.161 22.7378 103.679 22.8808 104.323 22.8808Z" fill="#090909"/>
<path d="M114.431 25.2394V11.9455H117.459L117.727 14.1969C118.138 13.4107 118.728 12.7853 119.496 12.3208C120.283 11.8562 121.203 11.6239 122.257 11.6239C123.901 11.6239 125.178 12.1421 126.09 13.1784C127.001 14.2148 127.457 15.7336 127.457 17.7348V25.2394H124.026V18.0564C124.026 16.9129 123.794 16.0373 123.329 15.4298C122.865 14.8223 122.141 14.5185 121.158 14.5185C120.193 14.5185 119.398 14.858 118.773 15.537C118.165 16.216 117.862 17.163 117.862 18.378V25.2394H114.431Z" fill="#090909"/>
<path d="M136.66 25.2394C135.267 25.2394 134.15 24.8999 133.31 24.2209C132.47 23.5419 132.05 22.3358 132.05 20.6026V14.8134H129.772V11.9455H132.05L132.452 8.38088H135.481V11.9455H139.073V14.8134H135.481V20.6294C135.481 21.2727 135.615 21.7194 135.883 21.9695C136.169 22.2018 136.651 22.3179 137.33 22.3179H138.992V25.2394H136.66Z" fill="#090909"/>
<path d="M142.018 25.2394V5.94189H145.449V13.9825C145.895 13.2499 146.494 12.6781 147.244 12.2672C148.013 11.8383 148.888 11.6239 149.871 11.6239C151.515 11.6239 152.784 12.1421 153.677 13.1784C154.588 14.2148 155.044 15.7336 155.044 17.7348V25.2394H151.64V18.0564C151.64 16.9129 151.408 16.0373 150.943 15.4298C150.496 14.8223 149.782 14.5185 148.799 14.5185C147.834 14.5185 147.03 14.858 146.387 15.537C145.761 16.216 145.449 17.163 145.449 18.378V25.2394H142.018Z" fill="#090909"/>
<path d="M158.324 25.2394V11.9455H161.38L161.701 14.4381C162.184 13.5805 162.836 12.9015 163.658 12.4012C164.498 11.883 165.481 11.6239 166.606 11.6239V15.2422H165.641C164.891 15.2422 164.221 15.3583 163.631 15.5906C163.042 15.8229 162.577 16.2249 162.238 16.7967C161.916 17.3685 161.755 18.1636 161.755 19.1821V25.2394H158.324Z" fill="#090909"/>
<path d="M175.094 25.561C173.808 25.561 172.646 25.2662 171.61 24.6765C170.592 24.0869 169.779 23.2739 169.171 22.2375C168.581 21.1833 168.287 19.9683 168.287 18.5925C168.287 17.2166 168.59 16.0105 169.198 14.9742C169.805 13.92 170.618 13.098 171.637 12.5084C172.673 11.9187 173.835 11.6239 175.121 11.6239C176.39 11.6239 177.533 11.9187 178.552 12.5084C179.588 13.098 180.401 13.92 180.991 14.9742C181.598 16.0105 181.902 17.2166 181.902 18.5925C181.902 19.9683 181.598 21.1833 180.991 22.2375C180.401 23.2739 179.588 24.0869 178.552 24.6765C177.515 25.2662 176.363 25.561 175.094 25.561ZM175.094 22.586C175.988 22.586 176.765 22.2554 177.426 21.5943C178.087 20.9153 178.418 19.9147 178.418 18.5925C178.418 17.2702 178.087 16.2785 177.426 15.6174C176.765 14.9384 175.997 14.599 175.121 14.599C174.21 14.599 173.424 14.9384 172.763 15.6174C172.119 16.2785 171.798 17.2702 171.798 18.5925C171.798 19.9147 172.119 20.9153 172.763 21.5943C173.424 22.2554 174.201 22.586 175.094 22.586Z" fill="#090909"/>
<path d="M184.969 31.1358V11.9455H188.025L188.4 13.8485C188.829 13.2588 189.392 12.7407 190.089 12.294C190.803 11.8473 191.724 11.6239 192.849 11.6239C194.1 11.6239 195.217 11.9277 196.199 12.5352C197.182 13.1427 197.959 13.9736 198.531 15.0278C199.103 16.082 199.389 17.2792 199.389 18.6193C199.389 19.9594 199.103 21.1565 198.531 22.2107C197.959 23.2471 197.182 24.069 196.199 24.6765C195.217 25.2662 194.1 25.561 192.849 25.561C191.849 25.561 190.973 25.3734 190.223 24.9981C189.472 24.6229 188.865 24.0958 188.4 23.4168V31.1358H184.969ZM192.126 22.5592C193.215 22.5592 194.118 22.1929 194.833 21.4603C195.547 20.7277 195.905 19.7807 195.905 18.6193C195.905 17.4578 195.547 16.5019 194.833 15.7514C194.118 15.001 193.215 14.6258 192.126 14.6258C191.018 14.6258 190.106 15.001 189.392 15.7514C188.695 16.484 188.346 17.431 188.346 18.5925C188.346 19.7539 188.695 20.7098 189.392 21.4603C190.106 22.1929 191.018 22.5592 192.126 22.5592Z" fill="#090909"/>
<path d="M202.911 31.1358L205.993 24.3549H205.189L200.017 11.9455H203.742L207.468 21.2995L211.354 11.9455H214.999L206.556 31.1358H202.911Z" fill="#090909"/>
<path d="M222.797 25.2394L228.667 15.7514L222.717 6.47793H226.657L230.865 13.0176L234.724 6.47793H238.584L232.714 15.9122L238.718 25.2394H234.778L230.516 18.6193L226.657 25.2394H222.797Z" fill="#090909"/>
</svg>
