<svg xmlns="http://www.w3.org/2000/svg" width="228" height="50" viewBox="0 0 228 50" fill="none"><path d="M49.44 12.64L46.52 12.08V9.28H52.76C53.64 9.28 54.8267 9.22667 56.32 9.12C56.6667 9.09333 57.1867 9.06667 57.88 9.04C58.6 9.01333 59.24 9 59.8 9C64.6533 9 68.3067 10.2133 70.76 12.64C73.2133 15.0667 74.44 18.5467 74.44 23.08C74.44 26.2 73.84 28.9867 72.64 31.44C71.44 33.8933 69.72 35.8267 67.48 37.24C65.24 38.6267 62.6 39.32 59.56 39.32C58.7333 39.32 57.4933 39.2667 55.84 39.16C54.2933 39.0533 53.2933 39 52.84 39H46.36V36.36L49.44 35.92V12.64ZM56.2 36.04C57.1333 36.3333 58.2 36.4533 59.4 36.4C61.8 36.3733 63.6533 35.36 64.96 33.36C66.2933 31.3333 66.96 28.24 66.96 24.08C66.96 20.24 66.3067 17.24 65 15.08C63.72 12.8933 61.6933 11.8 58.92 11.8C58.28 11.8 57.7067 11.84 57.2 11.92C56.6933 12 56.36 12.0533 56.2 12.08V36.04ZM77.3078 28C77.3078 25.44 77.8145 23.28 78.8278 21.52C79.8411 19.7333 81.2011 18.4 82.9078 17.52C84.6411 16.64 86.5345 16.2 88.5878 16.2C91.9478 16.2 94.5745 17.2133 96.4678 19.24C98.3878 21.24 99.3478 24.04 99.3478 27.64C99.3478 30.28 98.8411 32.48 97.8278 34.24C96.8145 36 95.4545 37.3067 93.7478 38.16C92.0411 39.0133 90.1345 39.44 88.0278 39.44C84.6945 39.44 82.0678 38.44 80.1478 36.44C78.2545 34.4133 77.3078 31.6 77.3078 28ZM88.4278 36.64C89.7078 36.64 90.6545 35.96 91.2678 34.6C91.9078 33.2133 92.2278 31.0533 92.2278 28.12C92.2278 25 91.9211 22.7067 91.3078 21.24C90.7211 19.7467 89.7211 19 88.3078 19C85.6945 19 84.3878 21.84 84.3878 27.52C84.3878 30.6133 84.7078 32.9067 85.3478 34.4C85.9878 35.8933 87.0145 36.64 88.4278 36.64ZM105.092 20.96L102.732 20.24V17.12L110.012 16.24H110.132L111.172 17.08V18.56L111.132 19.48C112.065 18.6 113.252 17.8533 114.692 17.24C116.132 16.6267 117.639 16.32 119.212 16.32C120.812 16.32 122.065 16.6133 122.972 17.2C123.905 17.76 124.572 18.6667 124.972 19.92C125.399 21.1733 125.612 22.88 125.612 25.04V36L127.852 36.32V39H116.972V36.36L118.932 36V25.08C118.932 23.8 118.839 22.8133 118.652 22.12C118.492 21.4 118.199 20.88 117.772 20.56C117.345 20.24 116.732 20.08 115.932 20.08C114.705 20.08 113.319 20.6533 111.772 21.8V36L113.972 36.36V39H102.892V36.36L105.092 36V20.96ZM130.628 28C130.628 25.44 131.135 23.28 132.148 21.52C133.161 19.7333 134.521 18.4 136.228 17.52C137.961 16.64 139.855 16.2 141.908 16.2C145.268 16.2 147.895 17.2133 149.788 19.24C151.708 21.24 152.668 24.04 152.668 27.64C152.668 30.28 152.161 32.48 151.148 34.24C150.135 36 148.775 37.3067 147.068 38.16C145.361 39.0133 143.455 39.44 141.348 39.44C138.015 39.44 135.388 38.44 133.468 36.44C131.575 34.4133 130.628 31.6 130.628 28ZM141.748 36.64C143.028 36.64 143.975 35.96 144.588 34.6C145.228 33.2133 145.548 31.0533 145.548 28.12C145.548 25 145.241 22.7067 144.628 21.24C144.041 19.7467 143.041 19 141.628 19C139.015 19 137.708 21.84 137.708 27.52C137.708 30.6133 138.028 32.9067 138.668 34.4C139.308 35.8933 140.335 36.64 141.748 36.64ZM156.212 36.36L158.652 36V20.96L156.292 20.24V17.12L162.932 16.24H163.052L164.172 17.08V18.04L164.052 21.36H164.172C164.359 20.7467 164.786 20.04 165.452 19.24C166.119 18.4133 166.959 17.7067 167.972 17.12C169.012 16.5067 170.132 16.2 171.332 16.2C172.026 16.2 172.559 16.2933 172.932 16.48V23.44C172.506 23.12 172.039 22.8667 171.532 22.68C171.052 22.4933 170.426 22.4 169.652 22.4C168.692 22.4 167.826 22.5333 167.052 22.8C166.279 23.04 165.666 23.32 165.212 23.64V36L169.612 36.4V39H156.212V36.36ZM180.271 13.32C179.231 13.32 178.391 13.0133 177.751 12.4C177.111 11.7867 176.791 11 176.791 10.04C176.791 8.92 177.138 8 177.831 7.28C178.551 6.56 179.511 6.2 180.711 6.2C181.911 6.2 182.831 6.50666 183.471 7.12C184.111 7.73333 184.431 8.52 184.431 9.48C184.431 10.6267 184.071 11.56 183.351 12.28C182.631 12.9733 181.618 13.32 180.311 13.32H180.271ZM177.831 20.96L175.151 20.2V17.2L183.151 16.24H183.231L184.471 17.08V36L186.871 36.36V39H175.351V36.36L177.831 36V20.96ZM196.409 39.36C194.649 39.36 193.342 38.96 192.489 38.16C191.662 37.3333 191.249 36.0667 191.249 34.36V20.12H188.809V17.8L189.609 17.48C190.249 17.2667 190.809 17.04 191.289 16.8C191.822 16.2933 192.249 15.6267 192.569 14.8C192.969 13.84 193.409 12.4933 193.889 10.76H197.609L197.849 16.76H203.569V20.12H197.929V30.72C197.929 32.1867 197.969 33.2133 198.049 33.8C198.129 34.3867 198.275 34.7733 198.489 34.96C198.729 35.12 199.155 35.2 199.769 35.2C201.022 35.2 202.209 34.9867 203.329 34.56L204.169 37.08C203.422 37.6933 202.315 38.2267 200.849 38.68C199.382 39.1333 197.902 39.36 196.409 39.36ZM209.897 48.96C209.337 48.96 208.75 48.92 208.137 48.84C207.55 48.76 207.124 48.6533 206.857 48.52V43.72C207.044 43.8533 207.444 43.9733 208.057 44.08C208.67 44.2133 209.23 44.28 209.737 44.28C211.097 44.28 212.177 43.8533 212.977 43C213.777 42.1467 214.51 40.8133 215.177 39H212.857L205.377 19.8L203.617 19.32V16.76H215.417V19.32L212.617 19.8L215.937 30.44L217.137 34.48L218.097 30.44L221.177 19.76L218.777 19.32V16.76H227.817V19.32L225.897 19.76C224.777 23.2 223.404 27.24 221.777 31.88C220.177 36.52 219.284 39.0533 219.097 39.48C218.297 41.6933 217.484 43.4667 216.657 44.8C215.857 46.16 214.91 47.1867 213.817 47.88C212.724 48.6 211.417 48.96 209.897 48.96Z" fill="white"></path><mask id="mask0_994_1809" style="mask-type:alpha" maskUnits="userSpaceOnUse" x="46" y="6" width="182" height="43"><path d="M49.44 12.64L46.52 12.08V9.28H52.76C53.64 9.28 54.8267 9.22667 56.32 9.12C56.6667 9.09333 57.1867 9.06667 57.88 9.04C58.6 9.01333 59.24 9 59.8 9C64.6533 9 68.3067 10.2133 70.76 12.64C73.2133 15.0667 74.44 18.5467 74.44 23.08C74.44 26.2 73.84 28.9867 72.64 31.44C71.44 33.8933 69.72 35.8267 67.48 37.24C65.24 38.6267 62.6 39.32 59.56 39.32C58.7333 39.32 57.4933 39.2667 55.84 39.16C54.2933 39.0533 53.2933 39 52.84 39H46.36V36.36L49.44 35.92V12.64ZM56.2 36.04C57.1333 36.3333 58.2 36.4533 59.4 36.4C61.8 36.3733 63.6533 35.36 64.96 33.36C66.2933 31.3333 66.96 28.24 66.96 24.08C66.96 20.24 66.3067 17.24 65 15.08C63.72 12.8933 61.6933 11.8 58.92 11.8C58.28 11.8 57.7067 11.84 57.2 11.92C56.6933 12 56.36 12.0533 56.2 12.08V36.04ZM77.3078 28C77.3078 25.44 77.8145 23.28 78.8278 21.52C79.8411 19.7333 81.2011 18.4 82.9078 17.52C84.6411 16.64 86.5345 16.2 88.5878 16.2C91.9478 16.2 94.5745 17.2133 96.4678 19.24C98.3878 21.24 99.3478 24.04 99.3478 27.64C99.3478 30.28 98.8411 32.48 97.8278 34.24C96.8145 36 95.4545 37.3067 93.7478 38.16C92.0411 39.0133 90.1345 39.44 88.0278 39.44C84.6945 39.44 82.0678 38.44 80.1478 36.44C78.2545 34.4133 77.3078 31.6 77.3078 28ZM88.4278 36.64C89.7078 36.64 90.6545 35.96 91.2678 34.6C91.9078 33.2133 92.2278 31.0533 92.2278 28.12C92.2278 25 91.9211 22.7067 91.3078 21.24C90.7211 19.7467 89.7211 19 88.3078 19C85.6945 19 84.3878 21.84 84.3878 27.52C84.3878 30.6133 84.7078 32.9067 85.3478 34.4C85.9878 35.8933 87.0145 36.64 88.4278 36.64ZM105.092 20.96L102.732 20.24V17.12L110.012 16.24H110.132L111.172 17.08V18.56L111.132 19.48C112.065 18.6 113.252 17.8533 114.692 17.24C116.132 16.6267 117.639 16.32 119.212 16.32C120.812 16.32 122.065 16.6133 122.972 17.2C123.905 17.76 124.572 18.6667 124.972 19.92C125.399 21.1733 125.612 22.88 125.612 25.04V36L127.852 36.32V39H116.972V36.36L118.932 36V25.08C118.932 23.8 118.839 22.8133 118.652 22.12C118.492 21.4 118.199 20.88 117.772 20.56C117.345 20.24 116.732 20.08 115.932 20.08C114.705 20.08 113.319 20.6533 111.772 21.8V36L113.972 36.36V39H102.892V36.36L105.092 36V20.96ZM130.628 28C130.628 25.44 131.135 23.28 132.148 21.52C133.161 19.7333 134.521 18.4 136.228 17.52C137.961 16.64 139.855 16.2 141.908 16.2C145.268 16.2 147.895 17.2133 149.788 19.24C151.708 21.24 152.668 24.04 152.668 27.64C152.668 30.28 152.161 32.48 151.148 34.24C150.135 36 148.775 37.3067 147.068 38.16C145.361 39.0133 143.455 39.44 141.348 39.44C138.015 39.44 135.388 38.44 133.468 36.44C131.575 34.4133 130.628 31.6 130.628 28ZM141.748 36.64C143.028 36.64 143.975 35.96 144.588 34.6C145.228 33.2133 145.548 31.0533 145.548 28.12C145.548 25 145.241 22.7067 144.628 21.24C144.041 19.7467 143.041 19 141.628 19C139.015 19 137.708 21.84 137.708 27.52C137.708 30.6133 138.028 32.9067 138.668 34.4C139.308 35.8933 140.335 36.64 141.748 36.64ZM156.212 36.36L158.652 36V20.96L156.292 20.24V17.12L162.932 16.24H163.052L164.172 17.08V18.04L164.052 21.36H164.172C164.359 20.7467 164.786 20.04 165.452 19.24C166.119 18.4133 166.959 17.7067 167.972 17.12C169.012 16.5067 170.132 16.2 171.332 16.2C172.026 16.2 172.559 16.2933 172.932 16.48V23.44C172.506 23.12 172.039 22.8667 171.532 22.68C171.052 22.4933 170.426 22.4 169.652 22.4C168.692 22.4 167.826 22.5333 167.052 22.8C166.279 23.04 165.666 23.32 165.212 23.64V36L169.612 36.4V39H156.212V36.36ZM180.271 13.32C179.231 13.32 178.391 13.0133 177.751 12.4C177.111 11.7867 176.791 11 176.791 10.04C176.791 8.92 177.138 8 177.831 7.28C178.551 6.56 179.511 6.2 180.711 6.2C181.911 6.2 182.831 6.50666 183.471 7.12C184.111 7.73333 184.431 8.52 184.431 9.48C184.431 10.6267 184.071 11.56 183.351 12.28C182.631 12.9733 181.618 13.32 180.311 13.32H180.271ZM177.831 20.96L175.151 20.2V17.2L183.151 16.24H183.231L184.471 17.08V36L186.871 36.36V39H175.351V36.36L177.831 36V20.96ZM196.409 39.36C194.649 39.36 193.342 38.96 192.489 38.16C191.662 37.3333 191.249 36.0667 191.249 34.36V20.12H188.809V17.8L189.609 17.48C190.249 17.2667 190.809 17.04 191.289 16.8C191.822 16.2933 192.249 15.6267 192.569 14.8C192.969 13.84 193.409 12.4933 193.889 10.76H197.609L197.849 16.76H203.569V20.12H197.929V30.72C197.929 32.1867 197.969 33.2133 198.049 33.8C198.129 34.3867 198.275 34.7733 198.489 34.96C198.729 35.12 199.155 35.2 199.769 35.2C201.022 35.2 202.209 34.9867 203.329 34.56L204.169 37.08C203.422 37.6933 202.315 38.2267 200.849 38.68C199.382 39.1333 197.902 39.36 196.409 39.36ZM209.897 48.96C209.337 48.96 208.75 48.92 208.137 48.84C207.55 48.76 207.124 48.6533 206.857 48.52V43.72C207.044 43.8533 207.444 43.9733 208.057 44.08C208.67 44.2133 209.23 44.28 209.737 44.28C211.097 44.28 212.177 43.8533 212.977 43C213.777 42.1467 214.51 40.8133 215.177 39H212.857L205.377 19.8L203.617 19.32V16.76H215.417V19.32L212.617 19.8L215.937 30.44L217.137 34.48L218.097 30.44L221.177 19.76L218.777 19.32V16.76H227.817V19.32L225.897 19.76C224.777 23.2 223.404 27.24 221.777 31.88C220.177 36.52 219.284 39.0533 219.097 39.48C218.297 41.6933 217.484 43.4667 216.657 44.8C215.857 46.16 214.91 47.1867 213.817 47.88C212.724 48.6 211.417 48.96 209.897 48.96Z" fill="white"></path></mask><g mask="url(#mask0_994_1809)"><ellipse cx="192" cy="27" rx="38" ry="40" fill="#FE8F1F"></ellipse></g><path d="M3.46484 29.2342C3.47788 29.233 3.49085 29.2324 3.50329 29.2324C3.49025 29.233 3.47728 29.2336 3.46484 29.2348V29.2342Z" fill="url(#paint0_linear_994_1809)"></path><path d="M11.296 24.7026H10.5009C10.5009 24.7026 2.3814 23.9487 2.42942 25.4766C2.46753 26.6904 2.39051 27.9096 2.20506 29.1178C2.16522 29.3776 2.14453 29.6436 2.14453 29.9145V33.9605V34.1032L2.14965 34.1141C2.17406 34.5811 2.30856 35.0364 2.54489 35.4416L3.04097 36.2923C3.48211 37.0487 3.71452 37.9087 3.71452 38.7844V41.1462C3.71452 41.6186 4.09739 42.0014 4.56972 42.0014H14.0748C14.5472 42.0014 14.93 41.6186 14.93 41.1462V38.7848C14.93 37.9155 15.2048 37.0682 15.715 36.3643C16.2253 35.6604 16.5 34.8132 16.5 33.9438V29.9066C16.4999 27.0325 14.17 24.7026 11.296 24.7026Z" fill="url(#paint1_linear_994_1809)"></path><path d="M16.5004 29.9061V33.9434C16.5004 34.3786 16.4317 34.8075 16.2991 35.2156C16.1665 35.6244 15.9701 36.0124 15.7154 36.3643C15.2053 37.068 14.9305 37.9148 14.9305 38.7844V41.1455C14.9305 41.6182 14.5473 42.0013 14.0754 42.0013H4.56974C4.09781 42.0013 3.71468 41.6182 3.71468 41.1455V38.7837C3.71468 37.9106 3.48353 37.0534 3.04492 36.2983L3.71468 37.4469H6.11539C6.97118 37.4469 7.7457 37.0999 8.3065 36.5391C8.8673 35.9783 9.21432 35.2038 9.21432 34.348C9.21432 33.5263 8.88812 32.7379 8.3065 32.1562L6.98362 30.8341C6.67758 30.5273 6.71782 30.0193 7.06896 29.7646L9.53699 27.9767C10.0859 27.579 10.3893 26.9509 10.3893 26.3061C10.3893 26.1302 10.3666 25.9529 10.3203 25.7786C10.2919 25.6717 10.5273 24.7021 10.5273 24.7021H11.2964C14.1705 24.7022 16.5004 27.0321 16.5004 29.9061Z" fill="url(#paint2_linear_994_1809)"></path><path d="M4.32829 22.0733C5.09808 22.0804 5.75965 22.5739 6.08625 23.2905C6.22587 23.5964 6.30456 23.9438 6.30456 24.3106C6.30456 24.3319 6.30456 24.3526 6.30396 24.3739L6.26491 25.9709L6.02412 26.0976L3.71587 27.3129C3.1437 27.6141 2.6987 28.0881 2.43071 28.652L2.29814 24.4166C2.2579 23.1313 3.18334 22.0633 4.32829 22.0733Z" fill="url(#paint3_linear_994_1809)"></path><path d="M8.04706 21.3165C9.11631 21.329 9.96539 22.1597 9.96539 23.1591C9.96539 23.2035 9.96359 23.2478 9.96007 23.2928L9.83462 24.9791C9.4429 24.6648 8.8855 24.5909 8.40917 24.8418L6.26423 25.9708L6.02344 26.0974L6.08556 23.2903L6.09328 23.1094C6.11809 22.1035 6.98852 21.3047 8.04706 21.3165Z" fill="url(#paint4_linear_994_1809)"></path><path d="M3.71445 37.4463L2.54483 35.4406C2.28269 34.9911 2.14453 34.4799 2.14453 33.9595V29.9136C2.14453 28.8221 2.74923 27.8204 3.71512 27.3119L8.40904 24.8411C9.07554 24.4902 9.89974 24.7746 10.2081 25.4618C10.6081 26.353 10.3277 27.4027 9.53663 27.9758L7.06847 29.764C6.71727 30.0184 6.67689 30.5267 6.9836 30.8333L8.30628 32.156C8.88743 32.7371 9.21396 33.5254 9.21396 34.3473C9.21396 36.0588 7.82649 37.4463 6.11496 37.4463H3.71445Z" fill="url(#paint5_linear_994_1809)"></path><path d="M29.5345 29.2342C29.5216 29.233 29.5085 29.2324 29.4961 29.2324C29.5091 29.233 29.5221 29.2336 29.5345 29.2348V29.2342Z" fill="url(#paint6_linear_994_1809)"></path><path d="M21.7039 24.7026H22.499C22.499 24.7026 30.6185 23.9487 30.5705 25.4766C30.5324 26.6904 30.6094 27.9096 30.7948 29.1178C30.8347 29.3776 30.8554 29.6436 30.8554 29.9145V33.9605V34.1032L30.8502 34.1141C30.8258 34.5811 30.6913 35.0364 30.455 35.4416L29.9589 36.2923C29.5178 37.0487 29.2854 37.9087 29.2854 38.7844V41.1462C29.2854 41.6186 28.9025 42.0014 28.4302 42.0014H18.9251C18.4528 42.0014 18.0699 41.6186 18.0699 41.1462V38.7848C18.0699 37.9155 17.7952 37.0682 17.285 36.3643C16.7747 35.6604 16.5 34.8132 16.5 33.9438V29.9066C16.5 27.0325 18.8299 24.7026 21.7039 24.7026Z" fill="url(#paint7_linear_994_1809)"></path><path d="M16.5 29.9061V33.9434C16.5 34.3786 16.5687 34.8075 16.7013 35.2156C16.8338 35.6244 17.0303 36.0124 17.285 36.3643C17.7951 37.068 18.0699 37.9148 18.0699 38.7844V41.1455C18.0699 41.6182 18.4531 42.0013 18.925 42.0013H28.4306C28.9026 42.0013 29.2857 41.6182 29.2857 41.1455V38.7837C29.2857 37.9106 29.5169 37.0534 29.9555 36.2983L29.2857 37.4469H26.885C26.0292 37.4469 25.2547 37.0999 24.6939 36.5391C24.1331 35.9783 23.7861 35.2038 23.7861 34.348C23.7861 33.5263 24.1123 32.7379 24.6939 32.1562L26.0168 30.8341C26.3228 30.5273 26.2826 30.0193 25.9314 29.7646L23.4634 27.9767C22.9144 27.579 22.6111 26.9509 22.6111 26.3061C22.6111 26.1302 22.6337 25.9529 22.6801 25.7786C22.7085 25.6717 22.473 24.7021 22.473 24.7021H21.704C18.8299 24.7022 16.5 27.0321 16.5 29.9061Z" fill="url(#paint8_linear_994_1809)"></path><path d="M29.2857 37.4469H26.885C26.0292 37.4469 25.2547 37.0999 24.6939 36.5391C24.1331 35.9783 23.7861 35.2038 23.7861 34.348C23.7861 33.5263 24.1123 32.7379 24.6939 32.1562L26.0168 30.8341C26.3228 30.5273 26.2826 30.0193 25.9314 29.7646L23.4634 27.9767C22.9144 27.579 22.6111 26.9509 22.6111 26.3061C22.6111 26.1302 22.6337 25.9529 22.6801 25.7786C22.7085 25.6717 22.473 24.7021 22.473 24.7021H21.704C18.8299 24.7021 16.5 27.0321 16.5 29.9061V33.9434C16.5 34.3786 16.5687 34.8075 16.7013 35.2156C16.7381 35.3291 16.7804 35.4409 16.8269 35.5508L23.2774 42.0013H28.4307C28.9026 42.0013 29.2858 41.6181 29.2858 41.1455V38.7837C29.2858 37.9106 29.5169 37.0534 29.9555 36.2983L29.2857 37.4469Z" fill="url(#paint9_linear_994_1809)"></path><path d="M28.6735 22.0733C27.9037 22.0804 27.2422 22.5739 26.9156 23.2905C26.776 23.5964 26.6973 23.9438 26.6973 24.3106C26.6973 24.3319 26.6973 24.3526 26.6979 24.3739L26.7369 25.9709L26.9777 26.0976L29.286 27.3129C29.8581 27.6141 30.3031 28.0881 30.5711 28.652L30.7037 24.4166C30.7439 23.1313 29.8185 22.0633 28.6735 22.0733Z" fill="url(#paint10_linear_994_1809)"></path><path d="M24.9535 21.3165C23.8842 21.329 23.0352 22.1597 23.0352 23.1591C23.0352 23.2035 23.037 23.2478 23.0405 23.2928L23.1659 24.9791C23.5576 24.6648 24.115 24.5909 24.5914 24.8418L26.7363 25.9708L26.9771 26.0974L26.915 23.2903L26.9073 23.1094C26.8825 22.1035 26.012 21.3047 24.9535 21.3165Z" fill="url(#paint11_linear_994_1809)"></path><path d="M29.2859 37.4473L30.4555 35.4416C30.7177 34.992 30.8558 34.4809 30.8558 33.9605V29.9146C30.8558 28.823 30.2511 27.8214 29.2852 27.3129L24.5913 24.842C23.9248 24.4912 23.1006 24.7756 22.7922 25.4628C22.3923 26.354 22.6726 27.4036 23.4637 27.9768L25.9319 29.765C26.2831 30.0194 26.3235 30.5276 26.0168 30.8343L24.6941 32.157C24.1129 32.7381 23.7864 33.5264 23.7864 34.3483C23.7864 36.0598 25.1739 37.4473 26.8854 37.4473H29.2859Z" fill="url(#paint12_linear_994_1809)"></path><path d="M6.99805 30.0156L15.0019 38.0195C15.114 37.4242 15.3559 36.8576 15.7151 36.3622C15.9698 36.0103 16.1662 35.6223 16.2988 35.2135C16.4313 34.8054 16.5 34.3764 16.5 33.9413V30.0156H6.99805Z" fill="url(#paint13_linear_994_1809)"></path><path d="M16.4998 35.5101C15.9009 35.5101 15.301 35.3683 14.765 35.1001C13.1451 34.2894 9.98178 32.551 6.99779 30.0168C3.11595 26.7201 0.815086 23.1816 0.159101 19.4995C-0.350481 16.6391 0.377009 13.7191 2.15506 11.4881C3.80174 9.42198 6.13513 8.21457 8.72548 8.08832C8.8778 8.08087 9.03212 8.07715 9.18405 8.07715C11.611 8.07715 13.902 9.01243 15.6351 10.7107C15.9482 11.0175 16.2368 11.343 16.4997 11.6847C16.7627 11.343 17.0513 11.0174 17.3644 10.7106C19.0975 9.01243 21.3886 8.07715 23.8156 8.07715C23.9675 8.07715 24.1219 8.08094 24.2742 8.08832C26.8645 8.21457 29.198 9.42198 30.8446 11.4882C32.6227 13.7192 33.3501 16.6392 32.8405 19.4995C32.1846 23.1816 29.8837 26.7202 26.0019 30.0169C23.0179 32.551 19.8547 34.2894 18.2347 35.1001C17.6986 35.3684 17.0987 35.5101 16.4998 35.5101Z" fill="url(#paint14_linear_994_1809)"></path><path d="M30.844 11.4889C30.2267 10.7143 29.513 10.0606 28.7255 9.53906C30.1633 11.6742 30.7208 14.3208 30.2579 16.9182C29.602 20.6003 27.3012 24.1389 23.4193 27.4356C20.4354 29.9697 17.2722 31.7082 15.6521 32.5189C15.1161 32.7871 14.5162 32.9289 13.9173 32.9289C13.3183 32.9289 12.7184 32.7871 12.1824 32.5189C10.5626 31.7082 7.39925 29.9698 4.41525 27.4356C4.28741 27.3271 4.16156 27.2182 4.03711 27.1091C4.89171 28.097 5.87835 29.0674 6.99716 30.0175C9.98115 32.5517 13.1445 34.29 14.7643 35.1007C15.3004 35.369 15.9003 35.5108 16.4992 35.5108C17.0981 35.5108 17.698 35.3691 18.234 35.1007C19.854 34.29 23.0172 32.5516 26.0012 30.0175C29.883 26.7208 32.1839 23.1822 32.8398 19.5001C33.3495 16.6398 32.6221 13.7198 30.844 11.4889Z" fill="url(#paint15_linear_994_1809)"></path><path d="M24.2743 8.08832C24.122 8.08094 23.9677 8.07715 23.8157 8.07715C21.3888 8.07715 19.0977 9.01243 17.3646 10.7107C17.0516 11.0174 16.7629 11.343 16.5 11.6846V35.5101C17.0989 35.5101 17.6988 35.3684 18.2348 35.1001C19.8549 34.2894 23.0181 32.5509 26.002 30.0168C29.8838 26.7201 32.1847 23.1815 32.8406 19.4995C33.3503 16.6391 32.6228 13.7191 30.8448 11.4882C29.1981 9.42198 26.8646 8.21457 24.2743 8.08832Z" fill="url(#paint16_linear_994_1809)"></path><path d="M29.2859 37.4453L30.4555 35.4397C30.7177 34.9901 30.8558 34.479 30.8558 33.9585V29.9126C30.8558 28.8211 30.2511 27.8194 29.2852 27.311L24.5913 24.8401C23.9248 24.4893 23.1006 24.7736 22.7922 25.4608C22.3923 26.3521 22.6726 27.4017 23.4637 27.9749L25.9319 29.763C26.2831 30.0174 26.3235 30.5257 26.0168 30.8323L24.6941 32.155C24.1129 32.7362 23.7864 33.5245 23.7864 34.3463C23.7864 36.0579 25.1739 37.4453 26.8854 37.4453H29.2859Z" fill="url(#paint17_linear_994_1809)"></path><path d="M3.71445 37.4453L2.54483 35.4397C2.28269 34.9901 2.14453 34.479 2.14453 33.9585V29.9126C2.14453 28.8211 2.74923 27.8194 3.71511 27.311L8.40904 24.8401C9.07553 24.4893 9.89974 24.7736 10.2081 25.4608C10.6081 26.3521 10.3277 27.4017 9.53662 27.9749L7.06847 29.763C6.71726 30.0174 6.67689 30.5257 6.98359 30.8323L8.30627 32.155C8.88742 32.7362 9.21395 33.5245 9.21395 34.3463C9.21395 36.0579 7.82649 37.4453 6.11496 37.4453H3.71445Z" fill="url(#paint18_linear_994_1809)"></path><path d="M3.71445 37.4453L2.54483 35.4397C2.28269 34.9901 2.14453 34.479 2.14453 33.9585V29.9126C2.14453 28.8211 2.74923 27.8194 3.71511 27.311L8.40904 24.8401C9.07553 24.4893 9.89974 24.7736 10.2081 25.4608C10.6081 26.3521 10.3277 27.4017 9.53662 27.9749L7.06847 29.763C6.71726 30.0174 6.67689 30.5257 6.98359 30.8323L8.30627 32.155C8.88742 32.7362 9.21395 33.5245 9.21395 34.3463C9.21395 36.0579 7.82649 37.4453 6.11496 37.4453H3.71445Z" fill="url(#paint19_linear_994_1809)"></path><path d="M29.2859 37.4453L30.4555 35.4397C30.7177 34.9901 30.8558 34.479 30.8558 33.9585V29.9126C30.8558 28.8211 30.2511 27.8194 29.2852 27.311L24.5913 24.8401C23.9248 24.4893 23.1006 24.7736 22.7922 25.4608C22.3923 26.3521 22.6726 27.4017 23.4637 27.9749L25.9319 29.763C26.2831 30.0174 26.3235 30.5257 26.0168 30.8323L24.6941 32.155C24.1129 32.7362 23.7864 33.5245 23.7864 34.3463C23.7864 36.0579 25.1739 37.4453 26.8854 37.4453H29.2859Z" fill="url(#paint20_linear_994_1809)"></path><defs><linearGradient id="paint0_linear_994_1809" x1="3.4701" y1="29.2308" x2="3.51109" y2="29.239" gradientUnits="userSpaceOnUse"><stop stop-color="#FCB37E"></stop><stop offset="1" stop-color="#8C6239"></stop></linearGradient><linearGradient id="paint1_linear_994_1809" x1="0.140858" y1="26.5081" x2="19.8114" y2="42.2446" gradientUnits="userSpaceOnUse"><stop stop-color="#FFDECF"></stop><stop offset="1" stop-color="#FAA68E"></stop></linearGradient><linearGradient id="paint2_linear_994_1809" x1="13.6951" y1="36.422" x2="8.68545" y2="33.4433" gradientUnits="userSpaceOnUse"><stop stop-color="#FAA68E" stop-opacity="0"></stop><stop offset="1" stop-color="#FAA68E"></stop></linearGradient><linearGradient id="paint3_linear_994_1809" x1="2.80606" y1="25.1315" x2="7.42123" y2="26.6365" gradientUnits="userSpaceOnUse"><stop stop-color="#FFDECF"></stop><stop offset="1" stop-color="#FAA68E"></stop></linearGradient><linearGradient id="paint4_linear_994_1809" x1="6.30467" y1="23.5412" x2="12.2232" y2="24.7348" gradientUnits="userSpaceOnUse"><stop stop-color="#FFDECF"></stop><stop offset="1" stop-color="#FAA68E"></stop></linearGradient><linearGradient id="paint5_linear_994_1809" x1="5.03414" y1="26.2781" x2="7.52085" y2="34.1903" gradientUnits="userSpaceOnUse"><stop stop-color="#FFDECF"></stop><stop offset="1" stop-color="#FAA68E" stop-opacity="0"></stop></linearGradient><linearGradient id="paint6_linear_994_1809" x1="29.5293" y1="29.2308" x2="29.4883" y2="29.2391" gradientUnits="userSpaceOnUse"><stop stop-color="#FCB37E"></stop><stop offset="1" stop-color="#8C6239"></stop></linearGradient><linearGradient id="paint7_linear_994_1809" x1="32.859" y1="26.5081" x2="13.1885" y2="42.2446" gradientUnits="userSpaceOnUse"><stop stop-color="#FFDECF"></stop><stop offset="1" stop-color="#FAA68E"></stop></linearGradient><linearGradient id="paint8_linear_994_1809" x1="24.5064" y1="37.3361" x2="18.5918" y2="31.4215" gradientUnits="userSpaceOnUse"><stop stop-color="#FAA68E" stop-opacity="0"></stop><stop offset="1" stop-color="#B74B52"></stop></linearGradient><linearGradient id="paint9_linear_994_1809" x1="25.683" y1="36.1595" x2="19.7683" y2="30.2449" gradientUnits="userSpaceOnUse"><stop stop-color="#FAA68E" stop-opacity="0"></stop><stop offset="1" stop-color="#B74B52"></stop></linearGradient><linearGradient id="paint10_linear_994_1809" x1="30.1958" y1="25.1315" x2="25.5806" y2="26.6365" gradientUnits="userSpaceOnUse"><stop stop-color="#FFDECF"></stop><stop offset="1" stop-color="#FAA68E"></stop></linearGradient><linearGradient id="paint11_linear_994_1809" x1="26.6959" y1="23.5412" x2="20.7774" y2="24.7348" gradientUnits="userSpaceOnUse"><stop stop-color="#FFDECF"></stop><stop offset="1" stop-color="#FAA68E"></stop></linearGradient><linearGradient id="paint12_linear_994_1809" x1="27.9662" y1="26.279" x2="25.4795" y2="34.1913" gradientUnits="userSpaceOnUse"><stop stop-color="#FFDECF"></stop><stop offset="1" stop-color="#FAA68E" stop-opacity="0"></stop></linearGradient><linearGradient id="paint13_linear_994_1809" x1="15.042" y1="38.489" x2="11.9724" y2="30.5903" gradientUnits="userSpaceOnUse"><stop stop-color="#FAA68E" stop-opacity="0"></stop><stop offset="1" stop-color="#B74B52"></stop></linearGradient><linearGradient id="paint14_linear_994_1809" x1="13.7777" y1="14.7376" x2="25.3129" y2="29.1401" gradientUnits="userSpaceOnUse"><stop stop-color="#FF7044"></stop><stop offset="1" stop-color="#F82814"></stop></linearGradient><linearGradient id="paint15_linear_994_1809" x1="20.4019" y1="25.3099" x2="25.1783" y2="35.5185" gradientUnits="userSpaceOnUse"><stop stop-color="#F82814" stop-opacity="0"></stop><stop offset="1" stop-color="#C0272D"></stop></linearGradient><linearGradient id="paint16_linear_994_1809" x1="19.2284" y1="18.9319" x2="4.04562" y2="3.45133" gradientUnits="userSpaceOnUse"><stop stop-color="#F82814" stop-opacity="0"></stop><stop offset="1" stop-color="#C0272D"></stop></linearGradient><linearGradient id="paint17_linear_994_1809" x1="16.0921" y1="15.6328" x2="46.1146" y2="59.8055" gradientUnits="userSpaceOnUse"><stop stop-color="#FFDECF"></stop><stop offset="1" stop-color="#FAA68E"></stop></linearGradient><linearGradient id="paint18_linear_994_1809" x1="5.03413" y1="26.2771" x2="7.52085" y2="34.1893" gradientUnits="userSpaceOnUse"><stop stop-color="#FFDECF"></stop><stop offset="1" stop-color="#FAA68E"></stop></linearGradient><linearGradient id="paint19_linear_994_1809" x1="5.03413" y1="26.2771" x2="7.52085" y2="34.1893" gradientUnits="userSpaceOnUse"><stop stop-color="#FFDECF"></stop><stop offset="1" stop-color="#FAA68E" stop-opacity="0"></stop></linearGradient><linearGradient id="paint20_linear_994_1809" x1="27.9662" y1="26.2771" x2="25.4795" y2="34.1893" gradientUnits="userSpaceOnUse"><stop stop-color="#FFDECF"></stop><stop offset="1" stop-color="#FAA68E" stop-opacity="0"></stop></linearGradient></defs></svg>