<?xml version="1.0" encoding="utf-8"?>
<!-- Generator: Adobe Illustrator 28.0.0, SVG Export Plug-In . SVG Version: 6.00 Build 0)  -->
<svg version="1.1" id="Calque_1" xmlns="http://www.w3.org/2000/svg" xmlns:xlink="http://www.w3.org/1999/xlink" x="0px" y="0px"
	 viewBox="0 0 76 60" style="enable-background:new 0 0 76 60;" xml:space="preserve" width="101" height="80">
<style type="text/css">
	.st0{fill:#FFFFFF;}
	.st1{fill:#153D89;}
	.st2{fill:#FFCD02;}
</style>
<g>
	<path class="st0" d="M44.2,2.6c0.2,0,0.4,0,0.6,0c0.3,0,0.8,0,1.2,0.1c0-0.1,0-0.1,0-0.2c0-0.1,0-0.2,0-0.3
		c-0.5,0.1-1.2,0.1-1.8,0.1c0-0.4,0-0.5,0-1c0-0.4,0-0.6,0-0.9c0.2,0,0.3,0,0.5,0c0.6,0,1.1,0.1,1.5,0.1c0-0.1,0-0.1,0-0.3
		c0-0.1,0-0.2,0-0.3c-0.3,0-0.5,0-1.5,0c-0.6,0-0.8,0-1.2,0c0,0.7,0.1,1.9,0.1,2.6c0,1,0,1.8-0.1,2.5c0.1,0,0.2,0,0.4,0
		c0.2,0,0.3,0,0.4,0c0-0.4-0.1-0.8-0.1-1.5L44.2,2.6z"/>
	<path class="st0" d="M39.9,0C38.1,0,37,1.1,37,2.6c0,1.6,1.2,2.6,2.8,2.6c1.8,0,2.8-1.2,2.8-2.7C42.7,0.9,41.4,0,39.9,0 M39.8,5
		c-1.1,0-1.9-0.9-1.9-2.3c0-1.7,1-2.3,2-2.3c0.5,0,1.2,0.2,1.6,0.9c0.3,0.4,0.3,1,0.3,1.4C41.8,4.1,41,5,39.8,5"/>
	<path class="st0" d="M32.3,4.7c0-2.3,0-2.8,0.1-4.7c-0.1,0-0.3,0-0.5,0c-0.2,0-0.3,0-0.4,0c0,0.3,0.1,1.4,0.1,2.4
		c0,1,0,1.8-0.1,2.7c0.4,0,0.6,0,1.2,0c0.8,0,1.1,0,1.6,0c0-0.1,0-0.1,0-0.3c0-0.1,0-0.2,0-0.2c-0.3,0.1-1,0.1-1.3,0.1
		C32.8,4.8,32.6,4.8,32.3,4.7"/>
	<path class="st0" d="M29.3,2.5c0,1.5,0,1.8-0.1,2.6c0.1,0,0.2,0,0.4,0c0.2,0,0.3,0,0.5,0c0-0.6-0.1-1.1-0.1-2.5
		c0-0.9,0-1.8,0.1-2.6c-0.1,0-0.2,0-0.4,0c-0.2,0-0.3,0-0.4,0C29.3,1.4,29.3,1.5,29.3,2.5"/>
	<path class="st0" d="M27.9,4.1c-0.6,0.7-1.3,0.8-1.7,0.8c-1,0-2-0.8-2-2.3c0-1.4,0.8-2.3,1.9-2.3c0.8,0,1.4,0.4,1.6,0.8h0.1
		c0-0.3,0.1-0.4,0.2-0.7C27.7,0.2,27.1,0,26.2,0c-1.9,0-2.8,1.2-2.8,2.6c0,1.5,1,2.6,2.7,2.6c0.6,0,1.3-0.2,1.8-0.5
		C27.9,4.5,28,4.3,27.9,4.1L27.9,4.1z"/>
	<path class="st0" d="M18.4,1.3l1.4,1.5C20,3,20.1,3.1,20.2,3.2c0.5,0.5,1.6,1.7,1.8,2c0.1,0,0.1,0,0.1,0c0,0,0.1,0,0.1,0
		c0-0.5,0-1.4,0-2c0-1.1,0-2.1,0.1-3.2c-0.1,0-0.2,0-0.3,0c-0.1,0-0.2,0-0.3,0c0.1,1.1,0.1,1.7,0.1,3.6v0.3c-0.9-1-1.1-1.1-2.6-2.7
		c-0.4-0.5-0.6-0.7-0.8-0.9L18.3,0c-0.1,0-0.1,0-0.2,0c0,0-0.1,0-0.1,0v0.9c0,0.3,0,1.6,0,1.9c0,0.8-0.1,2-0.1,2.4
		c0.1,0,0.2,0,0.3,0s0.2,0,0.3,0c-0.1-1.1-0.1-1.6-0.1-3.4V1.3z"/>
	<path class="st0" d="M12.6,3.1c0,0.6,0,1,0.3,1.4c0.5,0.6,1.2,0.7,1.8,0.7c0.8,0,1.3-0.3,1.6-0.6c0.5-0.5,0.5-1.3,0.5-2
		c0-1.1,0-1.9,0.1-2.6c-0.1,0-0.2,0-0.3,0c-0.2,0-0.2,0-0.3,0c0.1,0.5,0.1,1.9,0.1,2.2c0,0.2,0,1-0.1,1.5c-0.2,1-1.2,1.1-1.4,1.1
		c-0.5,0-0.9-0.2-1.2-0.5c-0.3-0.4-0.3-0.9-0.3-1.8c0-0.2,0-1.6,0.1-2.5c-0.1,0-0.3,0-0.4,0c-0.1,0-0.3,0-0.4,0
		C12.6,1,12.6,1.1,12.6,3.1"/>
	<path class="st0" d="M74,2.3c0-0.4,0-0.5,0-1c0-0.4,0-0.6,0-0.9c0.3,0,0.4,0,0.7,0c0.6,0,0.9,0,1.2,0.1c0-0.1,0-0.1,0-0.2
		c0-0.1,0-0.2,0-0.3c-0.4,0-0.7,0-1.1,0c-0.5,0-1,0-1.5,0c0,0.7,0.1,1.7,0.1,2.5c0,1.6,0,2.1-0.1,2.6c0.6,0,1.1,0,1.7,0
		c0.3,0,0.7,0,1,0c0-0.1,0-0.1,0-0.2c0-0.1,0-0.2,0-0.3c-0.9,0.1-1.5,0.1-1.9,0.1c0-0.2,0-0.8,0-1.1c0-0.3,0-0.7,0-1
		c0.2,0,0.4,0,0.6,0c0.3,0,0.8,0,1.1,0.1c0-0.1,0-0.1,0-0.2c0-0.1,0-0.2,0-0.3C75.2,2.3,74.6,2.3,74,2.3"/>
	<path class="st0" d="M71.8,0.2c-0.4-0.2-0.8-0.2-1.4-0.2c-0.6,0-0.9,0-1.2,0c0,0.5,0.1,0.9,0.1,2c0,1,0,2.1-0.1,3.1
		c0.1,0,0.2,0,0.4,0c0.2,0,0.3,0,0.4,0C70,4.4,70,3.9,70,2.9c0.1,0,0.2,0,0.4,0c0.4,0,1.1-0.1,1.5-0.3c0.3-0.2,0.7-0.6,0.7-1.2
		C72.5,0.8,72.3,0.4,71.8,0.2 M70,2.6c0-0.8,0-1.5,0-2.2c0.1,0,0.3,0,0.4,0c0.4,0,0.8,0.1,1,0.3c0.2,0.2,0.2,0.4,0.2,0.7
		C71.7,2.6,70.7,2.6,70,2.6"/>
	<path class="st0" d="M65.6,0c-1.8,0-2.8,1.1-2.8,2.7c0,1.6,1.2,2.6,2.8,2.6c1.8,0,2.8-1.2,2.8-2.7C68.4,0.9,67.2,0,65.6,0 M65.6,5
		c-1.1,0-1.9-0.9-1.9-2.3c0-1.7,1-2.3,2-2.3c0.5,0,1.2,0.2,1.6,0.9c0.3,0.4,0.3,1,0.3,1.4C67.6,4.1,66.7,5,65.6,5"/>
	<path class="st0" d="M60.7,2.6c0.4-0.1,1.4-0.3,1.4-1.3c0-0.4-0.1-0.7-0.4-0.9c-0.2-0.2-0.5-0.3-1.4-0.3c-0.1,0-0.7,0-0.9,0
		c-0.2,0-0.4,0-0.6,0c0,0.8,0,1.6,0,2.3c0,1.1,0,2-0.1,2.8c0.1,0,0.2,0,0.4,0c0.1,0,0.3,0,0.4,0c-0.1-1.2-0.1-2-0.1-2.5h0.2
		c0.6,0.7,1.1,1.4,1.8,2.5c0.2,0,0.4,0,0.5,0c0.2,0,0.3,0,0.4,0V5.1C62.5,4.9,61,3,60.7,2.6 M59.6,2.4c0-0.2,0-0.7,0-1
		c0-0.3,0-0.7,0-1c0.1,0,0.3,0,0.5,0c0.5,0,1.3,0.1,1.3,1c0,1-1,1.1-1.3,1.1C59.8,2.4,59.8,2.4,59.6,2.4"/>
	<path class="st0" d="M53.5,3.1c0,0.6,0,1,0.3,1.4c0.5,0.6,1.2,0.7,1.8,0.7c0.8,0,1.3-0.3,1.6-0.6c0.5-0.5,0.5-1.3,0.5-2
		c0-1.1,0-1.9,0.1-2.6c-0.1,0-0.2,0-0.3,0c-0.2,0-0.3,0-0.3,0c0.1,0.5,0.1,1.9,0.1,2.2c0,0.2,0,1-0.1,1.5c-0.2,1-1.2,1.1-1.5,1.1
		c-0.5,0-0.9-0.2-1.2-0.5c-0.3-0.4-0.3-0.9-0.3-1.8c0-0.2,0-1.6,0.1-2.5c-0.1,0-0.3,0-0.4,0c-0.1,0-0.3,0-0.4,0
		C53.5,1,53.5,1.1,53.5,3.1"/>
	<path class="st0" d="M50.6,2.3c0-0.4,0-0.5,0-1c0-0.4,0-0.6,0-0.9c0.3,0,0.4,0,0.7,0c0.6,0,0.9,0,1.2,0.1c0-0.1,0-0.1,0-0.2
		c0-0.1,0-0.2,0-0.3c-0.4,0-0.7,0-1.1,0c-0.5,0-1,0-1.5,0c0,0.7,0.1,1.7,0.1,2.5c0,1.6,0,2.1-0.1,2.6c0.6,0,1.1,0,1.7,0
		c0.3,0,0.7,0,1,0c0-0.1,0-0.1,0-0.2c0-0.1,0-0.2,0-0.3c-0.9,0.1-1.5,0.1-1.9,0.1c0-0.2,0-0.8,0-1.1c0-0.3,0-0.7,0-1
		c0.2,0,0.4,0,0.6,0c0.3,0,0.8,0,1.1,0.1c0-0.1,0-0.1,0-0.2c0-0.1,0-0.2,0-0.3C51.8,2.3,51.2,2.3,50.6,2.3"/>
	<path class="st0" d="M5.5,4.1C4.9,4.8,4.1,4.9,3.8,4.9c-1,0-2-0.8-2-2.3c0-1.4,0.8-2.3,1.9-2.3c0.8,0,1.4,0.4,1.6,0.8h0.1
		c0-0.3,0.1-0.4,0.2-0.7C5.3,0.2,4.7,0,3.8,0C1.8,0,1,1.2,1,2.6c0,1.5,1,2.6,2.7,2.6c0.6,0,1.3-0.2,1.8-0.5C5.5,4.5,5.5,4.3,5.5,4.1
		L5.5,4.1z"/>
	<path class="st0" d="M8.9,0C7.1,0,6.1,1.1,6.1,2.6c0,1.6,1.2,2.6,2.8,2.6c1.8,0,2.8-1.2,2.8-2.7C11.7,0.9,10.5,0,8.9,0 M8.9,5
		C7.7,5,6.9,4.1,6.9,2.6c0-1.7,1-2.3,2-2.3c0.5,0,1.2,0.2,1.6,0.9c0.3,0.4,0.3,1,0.3,1.4C10.8,4.1,10,5,8.9,5"/>
	<path class="st0" d="M47.6,56.2c0,0,0.1,0,0.1,0l0.7-1.2c0.1-0.1,0.1-0.2,0.1-0.2c0-0.1-0.1-0.2-0.2-0.2c-0.2,0-0.3,0.2-0.3,0.3
		L47.6,56.2z"/>
	<path class="st0" d="M74,55.2c0.3,0,0.5,0,0.7,0c0.6,0,0.9,0,1.2,0.1c0-0.1,0-0.1,0-0.2c0-0.1,0-0.2,0-0.3c-0.4,0-0.7,0-1.1,0
		c-0.5,0-1,0-1.5,0c0,0.7,0.1,1.7,0.1,2.5c0,1.6,0,2.1-0.1,2.6c0.6,0,1.1,0,1.7,0c0.3,0,0.7,0,1,0c0-0.1,0-0.1,0-0.2
		c0-0.1,0-0.2,0-0.3c-0.9,0.1-1.5,0.1-1.9,0.1c0-0.2,0-0.8,0-1.1c0-0.3,0-0.7,0-1c0.2,0,0.4,0,0.6,0c0.3,0,0.8,0,1.1,0.1
		c0-0.1,0-0.1,0-0.2c0-0.1,0-0.2,0-0.3C75.2,57,74.6,57,74,57"/>
	<path class="st0" d="M74,57"/>
	<path class="st0" d="M71.8,54.9c-0.4-0.2-0.8-0.2-1.4-0.2c-0.6,0-0.9,0-1.2,0c0,0.5,0.1,0.9,0.1,2c0,1,0,2.1-0.1,3.1
		c0.1,0,0.2,0,0.4,0c0.2,0,0.3,0,0.4,0c0-0.7-0.1-1.3-0.1-2.3c0.1,0,0.2,0,0.4,0c0.4,0,1.1-0.1,1.5-0.3c0.3-0.2,0.7-0.6,0.7-1.2
		C72.5,55.6,72.3,55.1,71.8,54.9 M70,57.3c0-0.8,0-1.5,0-2.2c0.1,0,0.3,0,0.4,0c0.4,0,0.8,0.1,1,0.3c0.2,0.2,0.3,0.4,0.3,0.7
		C71.7,57.3,70.7,57.3,70,57.3"/>
	<path class="st0" d="M65.6,54.7c-1.8,0-2.8,1.1-2.8,2.7c0,1.6,1.2,2.6,2.8,2.6c1.7,0,2.8-1.2,2.8-2.7
		C68.4,55.6,67.2,54.7,65.6,54.7 M65.6,59.7c-1.1,0-1.9-0.9-1.9-2.3c0-1.7,1-2.3,2-2.3c0.5,0,1.2,0.2,1.6,0.9c0.3,0.4,0.3,1,0.3,1.4
		C67.6,58.8,66.7,59.7,65.6,59.7"/>
	<path class="st0" d="M60.7,57.3c0.4-0.1,1.4-0.3,1.4-1.3c0-0.4-0.1-0.7-0.4-0.9c-0.2-0.2-0.5-0.3-1.4-0.3c-0.1,0-0.7,0-0.9,0
		c-0.2,0-0.4,0-0.6,0c0,0.8,0,1.6,0,2.3c0,1.1,0,2-0.1,2.8c0.1,0,0.2,0,0.4,0c0.1,0,0.3,0,0.4,0c-0.1-1.2-0.1-2-0.1-2.5h0.2
		c0.6,0.7,1.1,1.4,1.8,2.5c0.2,0,0.4,0,0.5,0c0.2,0,0.3,0,0.4,0v-0.1C62.5,59.6,61,57.7,60.7,57.3 M59.6,57.1c0-0.2,0-0.7,0-1
		c0-0.3,0-0.7,0-1c0.1,0,0.3,0,0.5,0c0.5,0,1.3,0.1,1.3,1c0,1-1,1.1-1.3,1.1C59.9,57.1,59.8,57.1,59.6,57.1"/>
	<path class="st0" d="M53.6,57.8c0,0.6,0,1,0.3,1.4c0.5,0.6,1.2,0.7,1.8,0.7c0.8,0,1.3-0.3,1.6-0.6c0.5-0.5,0.5-1.3,0.5-2
		c0-1.1,0-1.9,0.1-2.6c-0.1,0-0.2,0-0.3,0c-0.2,0-0.3,0-0.3,0c0.1,0.5,0.1,1.9,0.1,2.2c0,0.2,0,1-0.1,1.5c-0.2,1-1.2,1.1-1.4,1.1
		c-0.5,0-0.9-0.2-1.2-0.5c-0.3-0.4-0.3-0.9-0.3-1.8c0-0.2,0-1.6,0.1-2.5c-0.1,0-0.3,0-0.4,0c-0.1,0-0.3,0-0.4,0
		C53.6,55.7,53.6,55.8,53.6,57.8"/>
	<path class="st0" d="M50.6,57c0-0.4,0-0.5,0-1c0-0.4,0-0.6,0-0.8c0.3,0,0.4,0,0.7,0c0.6,0,0.9,0,1.2,0.1c0-0.1,0-0.1,0-0.2
		c0-0.1,0-0.2,0-0.3c-0.4,0-0.7,0-1.1,0c-0.5,0-1,0-1.5,0c0,0.7,0.1,1.7,0.1,2.5c0,1.6,0,2.1-0.1,2.6c0.6,0,1.1,0,1.7,0
		c0.3,0,0.7,0,1,0c0-0.1,0-0.1,0-0.2c0-0.1,0-0.2,0-0.3c-0.9,0.1-1.5,0.1-1.9,0.1c0-0.2,0-0.8,0-1.1c0-0.3,0-0.7,0-1
		c0.2,0,0.4,0,0.6,0c0.3,0,0.8,0,1.1,0.1c0-0.1,0-0.1,0-0.2c0-0.1,0-0.2,0-0.3C51.8,57,51.2,57,50.6,57"/>
	<path class="st0" d="M46.2,59.4c0-2.3,0-2.8,0.1-4.7c-0.1,0-0.3,0-0.5,0c-0.2,0-0.3,0-0.4,0c0,0.3,0.1,1.4,0.1,2.4
		c0,1,0,1.8-0.1,2.7c0.4,0,0.6,0,1.2,0c0.8,0,1.1,0,1.6,0c0-0.1,0-0.1,0-0.3c0-0.1,0-0.2,0-0.2c-0.3,0.1-1,0.1-1.3,0.1
		C46.7,59.5,46.5,59.5,46.2,59.4"/>
	<path class="st0" d="M40,57c0-0.4,0-0.5,0-1c0-0.4,0-0.6,0-0.8c0.3,0,0.4,0,0.7,0c0.6,0,0.9,0,1.2,0.1c0-0.1,0-0.1,0-0.2
		c0-0.1,0-0.2,0-0.3c-0.4,0-0.7,0-1.1,0c-0.5,0-1,0-1.5,0c0,0.7,0.1,1.7,0.1,2.5c0,1.6,0,2.1-0.1,2.6c0.6,0,1.1,0,1.7,0
		c0.3,0,0.7,0,1,0c0-0.1,0-0.1,0-0.2c0-0.1,0-0.2,0-0.3c-0.9,0.1-1.5,0.1-1.9,0.1c0-0.2,0-0.8,0-1.1c0-0.3,0-0.7,0-1
		c0.2,0,0.4,0,0.6,0c0.3,0,0.8,0,1.1,0.1c0-0.1,0-0.1,0-0.2c0-0.1,0-0.2,0-0.3C41.1,57,40.6,57,40,57"/>
	<path class="st0" d="M37.7,55.3c-0.7-0.5-1.4-0.5-2.7-0.5c-0.4,0-0.8,0-1.2,0c0,0.8,0.1,1.1,0.1,2.2c0,1.7,0,2.2-0.1,3
		c0.4,0,0.6,0,0.8,0c0.2,0,1.1,0,1.2,0c1.5,0,2.8-0.8,2.8-2.7C38.5,56.5,38.3,55.8,37.7,55.3 M36.8,59.2c-0.5,0.4-1.2,0.4-1.5,0.4
		c-0.4,0-0.5,0-0.8,0c0-0.7,0-0.9,0-2.2c0-0.7,0-1.4,0-2.1c0.2,0,0.3,0,0.6,0c0.6,0,1.2,0,1.7,0.4c0.6,0.5,0.7,1.2,0.7,1.8
		C37.7,57.8,37.5,58.7,36.8,59.2"/>
	<path class="st0" d="M28.9,59.4c0-2.3,0-2.8,0.1-4.7c-0.1,0-0.3,0-0.5,0c-0.2,0-0.3,0-0.4,0c0,0.3,0.1,1.4,0.1,2.4
		c0,1,0,1.8-0.1,2.7c0.4,0,0.6,0,1.2,0c0.8,0,1.1,0,1.6,0c0-0.1,0-0.1,0-0.3c0-0.1,0-0.2,0-0.2c-0.3,0.1-1,0.1-1.3,0.1
		C29.4,59.5,29.2,59.5,28.9,59.4"/>
	<path class="st0" d="M26,57.2c0,1.5,0,1.8-0.1,2.6c0.1,0,0.2,0,0.4,0c0.2,0,0.3,0,0.5,0c0-0.6-0.1-1.1-0.1-2.5c0-0.9,0-1.8,0.1-2.6
		c-0.1,0-0.2,0-0.4,0c-0.2,0-0.3,0-0.4,0C26,56.1,26,56.2,26,57.2"/>
	<path class="st0" d="M22.7,57c0-0.4,0-0.5,0-1c0-0.4,0-0.6,0-0.8c0.3,0,0.4,0,0.7,0c0.6,0,0.9,0,1.2,0.1c0-0.1,0-0.1,0-0.2
		c0-0.1,0-0.2,0-0.3c-0.4,0-0.7,0-1.1,0c-0.5,0-1,0-1.5,0c0,0.7,0.1,1.7,0.1,2.5c0,1.6,0,2.1-0.1,2.6c0.6,0,1.1,0,1.7,0
		c0.3,0,0.7,0,1,0c0-0.1,0-0.1,0-0.2c0-0.1,0-0.2,0-0.3c-0.9,0.1-1.5,0.1-1.9,0.1c0-0.2,0-0.8,0-1.1c0-0.3,0-0.7,0-1
		c0.2,0,0.4,0,0.6,0c0.3,0,0.8,0,1.1,0.1c0-0.1,0-0.1,0-0.2c0-0.1,0-0.2,0-0.3C23.9,57,23.3,57,22.7,57"/>
	<path class="st0" d="M20.6,55.7c0-0.3,0.2-0.5,0.2-0.7c-0.2-0.1-0.7-0.3-1.3-0.3c-0.9,0-1.6,0.5-1.6,1.4c0,0.3,0.1,0.7,0.4,0.9
		c0.2,0.2,0.3,0.2,1.2,0.6c0.5,0.2,0.9,0.4,0.9,1c0,0.5-0.3,1-1.1,1c-0.6,0-1-0.3-1.2-0.8H18c0,0.1,0,0.3-0.1,0.7
		c0.4,0.3,0.9,0.4,1.3,0.4c1.3,0,1.8-0.9,1.8-1.6c0-0.3-0.1-0.7-0.4-0.9c-0.3-0.2-0.4-0.3-1.2-0.6c-0.4-0.1-0.9-0.3-0.9-0.9
		c0-0.3,0.1-0.8,0.9-0.8c0.7,0,0.9,0.4,1,0.7H20.6z"/>
	<path class="st0" d="M13,56l1.4,1.5c0.1,0.1,0.3,0.3,0.4,0.4c0.5,0.5,1.6,1.7,1.8,2c0.1,0,0.1,0,0.1,0c0,0,0.1,0,0.1,0
		c0-0.5,0-1.4,0-2c0-1.1,0-2.1,0.1-3.2c-0.1,0-0.2,0-0.3,0c-0.1,0-0.2,0-0.3,0c0.1,1.1,0.1,1.7,0.1,3.6v0.3c-0.9-1-1.1-1.1-2.6-2.7
		c-0.4-0.5-0.6-0.7-0.8-0.9l-0.2-0.3c-0.1,0-0.1,0-0.2,0c0,0-0.1,0-0.1,0v0.9c0,0.3,0,1.6,0,1.9c0,0.8-0.1,2-0.1,2.4
		c0.1,0,0.2,0,0.3,0c0.1,0,0.2,0,0.3,0C13,58.7,13,58.3,13,56.5V56z"/>
	<path class="st0" d="M5.5,58.8c-0.6,0.7-1.3,0.8-1.7,0.8c-1,0-2-0.8-2-2.3c0-1.4,0.8-2.3,1.9-2.3c0.8,0,1.4,0.4,1.6,0.8h0.1
		c0-0.3,0.1-0.4,0.2-0.7c-0.3-0.1-0.9-0.4-1.8-0.4c-1.9,0-2.8,1.2-2.8,2.6c0,1.5,1,2.6,2.7,2.6c0.6,0,1.3-0.2,1.8-0.5
		C5.5,59.2,5.5,59,5.5,58.8L5.5,58.8z"/>
	<path class="st0" d="M8.9,54.7c-1.8,0-2.8,1.1-2.8,2.7C6.1,59,7.2,60,8.8,60c1.8,0,2.8-1.2,2.8-2.7C11.7,55.6,10.4,54.7,8.9,54.7
		 M8.9,59.7c-1.1,0-1.9-0.9-1.9-2.3c0-1.7,1-2.3,2-2.3c0.5,0,1.2,0.2,1.6,0.9c0.3,0.4,0.3,1,0.3,1.4C10.8,58.8,10,59.7,8.9,59.7"/>
</g>
<rect x="1.3" y="8.3" class="st1" width="74.4" height="43.4"/>
<path class="st0" d="M1.7,8.6h73.6v42.6H1.7V8.6z M1.3,51.7h74.4V8.3H1.3V51.7z"/>
<g>
	<path class="st0" d="M43.4,17.4l-1.6,2.7c0,0,0,0,0,0l-2.9,5.1c1.2-0.7,2.7-1.1,4.3-1.1c4.3,0,7.7,3,7.7,6.6c0,3.7-3.5,6.6-7.7,6.6
		c-3.9,0-7-2.4-7.6-5.6l-2.6,4.7c2.2,2.9,6.1,4.9,10.4,4.9c6.9,0,12.4-4.8,12.4-10.7c0-4.9-3.8-8.9-8.9-10.2l1.8-3.1"/>
	<g>
		<path class="st0" d="M38.2,17.4l-13.3,24l-5.7,0c1.3-2.2,13.4-24,13.4-24"/>
		<path class="st0" d="M19,15.4L17.8,17h20.6l0.9-1.6H19z M20.3,13.4L19.2,15h20.3l0.9-1.6H20.3z"/>
	</g>
	<path class="st0" d="M44.4,15.5l-0.9,1.6h13.7l1.1-1.6H44.4z M45.5,13.5l-0.9,1.6h13.9l1.1-1.6H45.5z"/>
</g>
<g>
	<g>
		<polygon class="st0" points="19.5,44.7 18.7,45.1 18.8,45.6 19.4,45.3 19.4,45.3 19.4,48 20,48 20,44.7 		"/>
		<g>
			<path class="st0" d="M22.5,47.5c0.1,0,0.2,0,0.3,0c0.2,0,0.5-0.1,0.6-0.2c0.2-0.2,0.4-0.4,0.4-0.7h0c-0.2,0.2-0.4,0.3-0.7,0.3
				c-0.6,0-1-0.4-1-1c0-0.6,0.5-1.2,1.2-1.2c0.7,0,1.1,0.6,1.1,1.4c0,0.7-0.2,1.2-0.6,1.5c-0.3,0.3-0.7,0.4-1.1,0.4
				c-0.1,0-0.3,0-0.4,0V47.5z M22.9,45.8c0,0.4,0.2,0.6,0.5,0.6c0.2,0,0.4-0.1,0.5-0.3c0-0.1,0-0.1,0-0.2c0-0.5-0.2-0.8-0.5-0.8
				C23.1,45.1,22.9,45.4,22.9,45.8"/>
			<path class="st0" d="M27.4,48v-0.8H26v-0.4l1.3-2H28v2h0.4v0.5H28V48H27.4z M27.4,46.7v-0.9c0-0.2,0-0.4,0-0.6h0
				c-0.1,0.2-0.2,0.4-0.3,0.6l-0.6,0.9v0H27.4z"/>
			<path class="st0" d="M30.2,47.5c0.1,0,0.2,0,0.3,0c0.2,0,0.5-0.1,0.6-0.2c0.2-0.2,0.4-0.4,0.4-0.7h0c-0.2,0.2-0.4,0.3-0.7,0.3
				c-0.6,0-1-0.4-1-1c0-0.6,0.5-1.2,1.2-1.2c0.7,0,1.1,0.6,1.1,1.4c0,0.7-0.2,1.2-0.6,1.5C31.3,47.8,31,48,30.5,48
				c-0.1,0-0.3,0-0.4,0V47.5z M30.5,45.8c0,0.4,0.2,0.6,0.5,0.6c0.2,0,0.4-0.1,0.5-0.3c0-0.1,0-0.1,0-0.2c0-0.5-0.2-0.8-0.5-0.8
				C30.7,45.1,30.5,45.4,30.5,45.8"/>
		</g>
		<rect x="35.9" y="46.4" class="st0" width="1.3" height="0.4"/>
		<g>
			<path class="st0" d="M41,48v-0.4l0.4-0.4c0.7-0.7,1.1-1.1,1.1-1.5c0-0.3-0.2-0.5-0.6-0.5c-0.3,0-0.5,0.1-0.7,0.2L41,45
				c0.2-0.2,0.6-0.3,1-0.3c0.7,0,1.1,0.5,1.1,1c0,0.6-0.4,1.1-1,1.6l-0.3,0.3v0h1.3V48H41z"/>
			<path class="st0" d="M47,46.3c0,1.1-0.4,1.7-1.2,1.7c-0.8,0-1.1-0.7-1.1-1.7c0-1,0.4-1.7,1.2-1.7C46.7,44.7,47,45.4,47,46.3
				 M45.4,46.3c0,0.8,0.2,1.2,0.5,1.2c0.3,0,0.5-0.4,0.5-1.2c0-0.8-0.2-1.2-0.5-1.2C45.6,45.1,45.4,45.5,45.4,46.3"/>
			<path class="st0" d="M48.6,48v-0.4l0.4-0.4c0.7-0.7,1.1-1.1,1.1-1.5c0-0.3-0.2-0.5-0.6-0.5c-0.3,0-0.5,0.1-0.7,0.2L48.7,45
				c0.2-0.2,0.6-0.3,1-0.3c0.7,0,1.1,0.5,1.1,1c0,0.6-0.4,1.1-1,1.6l-0.3,0.3v0h1.3V48H48.6z"/>
			<path class="st0" d="M53.8,48v-0.8h-1.4v-0.4l1.3-2h0.7v2h0.4v0.5h-0.4V48H53.8z M53.8,46.7v-0.9c0-0.2,0-0.4,0-0.6h0
				c-0.1,0.2-0.2,0.4-0.3,0.6l-0.6,0.9v0H53.8z"/>
		</g>
	</g>
	<g>
		<polygon class="st2" points="72.7,20.6 75.8,18.2 72,18.2 70.8,14.3 69.6,18.2 65.7,18.2 68.8,20.6 67.6,24.5 70.8,22.1 
			73.9,24.5 		"/>
		<polygon class="st2" points="68.4,37.5 71.5,35.2 67.6,35.2 66.4,31.3 65.2,35.2 61.4,35.2 64.5,37.5 63.3,41.4 66.4,39 
			69.6,41.4 		"/>
		<polygon class="st2" points="12.7,37.5 15.8,35.1 12,35.1 10.8,31.3 9.6,35.1 5.7,35.1 8.8,37.5 7.6,41.4 10.8,39 13.9,41.4 		"/>
		<polygon class="st2" points="8.4,20.6 11.5,18.2 7.7,18.2 6.5,14.3 5.3,18.2 1.4,18.2 4.5,20.6 3.3,24.5 6.5,22.1 9.6,24.5 		"/>
	</g>
</g>
</svg>
