<svg xmlns="http://www.w3.org/2000/svg" width="228" height="43" viewBox="0 0 228 43" fill="none"><path d="M49.4404 6.44L46.5204 5.88V3.08H52.7604C53.6404 3.08 54.827 3.02667 56.3204 2.92C56.667 2.89333 57.187 2.86667 57.8804 2.84C58.6004 2.81333 59.2404 2.8 59.8004 2.8C64.6537 2.8 68.307 4.01333 70.7604 6.44C73.2137 8.86667 74.4404 12.3467 74.4404 16.88C74.4404 20 73.8404 22.7867 72.6404 25.24C71.4404 27.6933 69.7204 29.6267 67.4804 31.04C65.2404 32.4267 62.6004 33.12 59.5604 33.12C58.7337 33.12 57.4937 33.0667 55.8404 32.96C54.2937 32.8533 53.2937 32.8 52.8404 32.8H46.3604V30.16L49.4404 29.72V6.44ZM56.2004 29.84C57.1337 30.1333 58.2004 30.2533 59.4004 30.2C61.8004 30.1733 63.6537 29.16 64.9604 27.16C66.2937 25.1333 66.9604 22.04 66.9604 17.88C66.9604 14.04 66.307 11.04 65.0004 8.88C63.7204 6.69333 61.6937 5.6 58.9204 5.6C58.2804 5.6 57.707 5.64 57.2004 5.72C56.6937 5.8 56.3604 5.85333 56.2004 5.88V29.84Z" fill="#14162E"></path><path d="M77.3082 21.8C77.3082 19.24 77.8148 17.08 78.8282 15.32C79.8415 13.5333 81.2015 12.2 82.9082 11.32C84.6415 10.44 86.5348 10 88.5882 10C91.9482 10 94.5748 11.0133 96.4682 13.04C98.3882 15.04 99.3482 17.84 99.3482 21.44C99.3482 24.08 98.8415 26.28 97.8282 28.04C96.8148 29.8 95.4548 31.1067 93.7482 31.96C92.0415 32.8133 90.1348 33.24 88.0282 33.24C84.6948 33.24 82.0682 32.24 80.1482 30.24C78.2548 28.2133 77.3082 25.4 77.3082 21.8ZM88.4282 30.44C89.7082 30.44 90.6548 29.76 91.2682 28.4C91.9082 27.0133 92.2282 24.8533 92.2282 21.92C92.2282 18.8 91.9215 16.5067 91.3082 15.04C90.7215 13.5467 89.7215 12.8 88.3082 12.8C85.6948 12.8 84.3882 15.64 84.3882 21.32C84.3882 24.4133 84.7082 26.7067 85.3482 28.2C85.9882 29.6933 87.0148 30.44 88.4282 30.44Z" fill="#14162E"></path><path d="M105.092 14.76L102.732 14.04V10.92L110.012 10.04H110.132L111.172 10.88V12.36L111.132 13.28C112.066 12.4 113.252 11.6533 114.692 11.04C116.132 10.4267 117.639 10.12 119.212 10.12C120.812 10.12 122.066 10.4133 122.972 11C123.906 11.56 124.572 12.4667 124.972 13.72C125.399 14.9733 125.612 16.68 125.612 18.84V29.8L127.852 30.12V32.8H116.972V30.16L118.932 29.8V18.88C118.932 17.6 118.839 16.6133 118.652 15.92C118.492 15.2 118.199 14.68 117.772 14.36C117.346 14.04 116.732 13.88 115.932 13.88C114.706 13.88 113.319 14.4533 111.772 15.6V29.8L113.972 30.16V32.8H102.892V30.16L105.092 29.8V14.76Z" fill="#14162E"></path><path d="M130.628 21.8C130.628 19.24 131.135 17.08 132.148 15.32C133.162 13.5333 134.522 12.2 136.228 11.32C137.962 10.44 139.855 10 141.908 10C145.268 10 147.895 11.0133 149.788 13.04C151.708 15.04 152.668 17.84 152.668 21.44C152.668 24.08 152.162 26.28 151.148 28.04C150.135 29.8 148.775 31.1067 147.068 31.96C145.362 32.8133 143.455 33.24 141.348 33.24C138.015 33.24 135.388 32.24 133.468 30.24C131.575 28.2133 130.628 25.4 130.628 21.8ZM141.748 30.44C143.028 30.44 143.975 29.76 144.588 28.4C145.228 27.0133 145.548 24.8533 145.548 21.92C145.548 18.8 145.242 16.5067 144.628 15.04C144.042 13.5467 143.042 12.8 141.628 12.8C139.015 12.8 137.708 15.64 137.708 21.32C137.708 24.4133 138.028 26.7067 138.668 28.2C139.308 29.6933 140.335 30.44 141.748 30.44Z" fill="#14162E"></path><path d="M156.213 30.16L158.653 29.8V14.76L156.293 14.04V10.92L162.933 10.04H163.053L164.173 10.88V11.84L164.053 15.16H164.173C164.359 14.5467 164.786 13.84 165.453 13.04C166.119 12.2133 166.959 11.5067 167.973 10.92C169.013 10.3067 170.133 10 171.333 10C172.026 10 172.559 10.0933 172.933 10.28V17.24C172.506 16.92 172.039 16.6667 171.533 16.48C171.053 16.2933 170.426 16.2 169.653 16.2C168.693 16.2 167.826 16.3333 167.053 16.6C166.279 16.84 165.666 17.12 165.213 17.44V29.8L169.613 30.2V32.8H156.213V30.16Z" fill="#14162E"></path><path d="M180.271 7.12C179.231 7.12 178.391 6.81333 177.751 6.2C177.111 5.58667 176.791 4.8 176.791 3.84C176.791 2.72 177.138 1.8 177.831 1.08C178.551 0.36 179.511 0 180.711 0C181.911 0 182.831 0.306667 183.471 0.92C184.111 1.53333 184.431 2.32 184.431 3.28C184.431 4.42667 184.071 5.36 183.351 6.08C182.631 6.77333 181.618 7.12 180.311 7.12H180.271ZM177.831 14.76L175.151 14V11L183.151 10.04H183.231L184.471 10.88V29.8L186.871 30.16V32.8H175.351V30.16L177.831 29.8V14.76Z" fill="#14162E"></path><path d="M196.409 33.16C194.649 33.16 193.342 32.76 192.489 31.96C191.662 31.1333 191.249 29.8667 191.249 28.16V13.92H188.809V11.6L189.609 11.28C190.249 11.0667 190.809 10.84 191.289 10.6C191.822 10.0933 192.249 9.42667 192.569 8.6C192.969 7.64 193.409 6.29333 193.889 4.56H197.609L197.849 10.56H203.569V13.92H197.929V24.52C197.929 25.9867 197.969 27.0133 198.049 27.6C198.129 28.1867 198.276 28.5733 198.489 28.76C198.729 28.92 199.156 29 199.769 29C201.022 29 202.209 28.7867 203.329 28.36L204.169 30.88C203.422 31.4933 202.316 32.0267 200.849 32.48C199.382 32.9333 197.902 33.16 196.409 33.16Z" fill="#14162E"></path><path d="M209.897 42.76C209.337 42.76 208.751 42.72 208.137 42.64C207.551 42.56 207.124 42.4533 206.857 42.32V37.52C207.044 37.6533 207.444 37.7733 208.057 37.88C208.671 38.0133 209.231 38.08 209.737 38.08C211.097 38.08 212.177 37.6533 212.977 36.8C213.777 35.9467 214.511 34.6133 215.177 32.8H212.857L205.377 13.6L203.617 13.12V10.56H215.417V13.12L212.617 13.6L215.937 24.24L217.137 28.28L218.097 24.24L221.177 13.56L218.777 13.12V10.56H227.817V13.12L225.897 13.56C224.777 17 223.404 21.04 221.777 25.68C220.177 30.32 219.284 32.8533 219.097 33.28C218.297 35.4933 217.484 37.2667 216.657 38.6C215.857 39.96 214.911 40.9867 213.817 41.68C212.724 42.4 211.417 42.76 209.897 42.76Z" fill="#14162E"></path><mask id="mask0_1_2343" style="mask-type:alpha" maskUnits="userSpaceOnUse" x="46" y="0" width="182" height="43"><path d="M49.4404 6.44L46.5204 5.88V3.08H52.7604C53.6404 3.08 54.827 3.02667 56.3204 2.92C56.667 2.89333 57.187 2.86667 57.8804 2.84C58.6004 2.81333 59.2404 2.8 59.8004 2.8C64.6537 2.8 68.307 4.01333 70.7604 6.44C73.2137 8.86667 74.4404 12.3467 74.4404 16.88C74.4404 20 73.8404 22.7867 72.6404 25.24C71.4404 27.6933 69.7204 29.6267 67.4804 31.04C65.2404 32.4267 62.6004 33.12 59.5604 33.12C58.7337 33.12 57.4937 33.0667 55.8404 32.96C54.2937 32.8533 53.2937 32.8 52.8404 32.8H46.3604V30.16L49.4404 29.72V6.44ZM56.2004 29.84C57.1337 30.1333 58.2004 30.2533 59.4004 30.2C61.8004 30.1733 63.6537 29.16 64.9604 27.16C66.2937 25.1333 66.9604 22.04 66.9604 17.88C66.9604 14.04 66.307 11.04 65.0004 8.88C63.7204 6.69333 61.6937 5.6 58.9204 5.6C58.2804 5.6 57.707 5.64 57.2004 5.72C56.6937 5.8 56.3604 5.85333 56.2004 5.88V29.84Z" fill="#14162E"></path><path d="M77.3082 21.8C77.3082 19.24 77.8148 17.08 78.8282 15.32C79.8415 13.5333 81.2015 12.2 82.9082 11.32C84.6415 10.44 86.5348 10 88.5882 10C91.9482 10 94.5748 11.0133 96.4682 13.04C98.3882 15.04 99.3482 17.84 99.3482 21.44C99.3482 24.08 98.8415 26.28 97.8282 28.04C96.8148 29.8 95.4548 31.1067 93.7482 31.96C92.0415 32.8133 90.1348 33.24 88.0282 33.24C84.6948 33.24 82.0682 32.24 80.1482 30.24C78.2548 28.2133 77.3082 25.4 77.3082 21.8ZM88.4282 30.44C89.7082 30.44 90.6548 29.76 91.2682 28.4C91.9082 27.0133 92.2282 24.8533 92.2282 21.92C92.2282 18.8 91.9215 16.5067 91.3082 15.04C90.7215 13.5467 89.7215 12.8 88.3082 12.8C85.6948 12.8 84.3882 15.64 84.3882 21.32C84.3882 24.4133 84.7082 26.7067 85.3482 28.2C85.9882 29.6933 87.0148 30.44 88.4282 30.44Z" fill="#14162E"></path><path d="M105.092 14.76L102.732 14.04V10.92L110.012 10.04H110.132L111.172 10.88V12.36L111.132 13.28C112.066 12.4 113.252 11.6533 114.692 11.04C116.132 10.4267 117.639 10.12 119.212 10.12C120.812 10.12 122.066 10.4133 122.972 11C123.906 11.56 124.572 12.4667 124.972 13.72C125.399 14.9733 125.612 16.68 125.612 18.84V29.8L127.852 30.12V32.8H116.972V30.16L118.932 29.8V18.88C118.932 17.6 118.839 16.6133 118.652 15.92C118.492 15.2 118.199 14.68 117.772 14.36C117.346 14.04 116.732 13.88 115.932 13.88C114.706 13.88 113.319 14.4533 111.772 15.6V29.8L113.972 30.16V32.8H102.892V30.16L105.092 29.8V14.76Z" fill="#14162E"></path><path d="M130.628 21.8C130.628 19.24 131.135 17.08 132.148 15.32C133.162 13.5333 134.522 12.2 136.228 11.32C137.962 10.44 139.855 10 141.908 10C145.268 10 147.895 11.0133 149.788 13.04C151.708 15.04 152.668 17.84 152.668 21.44C152.668 24.08 152.162 26.28 151.148 28.04C150.135 29.8 148.775 31.1067 147.068 31.96C145.362 32.8133 143.455 33.24 141.348 33.24C138.015 33.24 135.388 32.24 133.468 30.24C131.575 28.2133 130.628 25.4 130.628 21.8ZM141.748 30.44C143.028 30.44 143.975 29.76 144.588 28.4C145.228 27.0133 145.548 24.8533 145.548 21.92C145.548 18.8 145.242 16.5067 144.628 15.04C144.042 13.5467 143.042 12.8 141.628 12.8C139.015 12.8 137.708 15.64 137.708 21.32C137.708 24.4133 138.028 26.7067 138.668 28.2C139.308 29.6933 140.335 30.44 141.748 30.44Z" fill="#14162E"></path><path d="M156.213 30.16L158.653 29.8V14.76L156.293 14.04V10.92L162.933 10.04H163.053L164.173 10.88V11.84L164.053 15.16H164.173C164.359 14.5467 164.786 13.84 165.453 13.04C166.119 12.2133 166.959 11.5067 167.973 10.92C169.013 10.3067 170.133 10 171.333 10C172.026 10 172.559 10.0933 172.933 10.28V17.24C172.506 16.92 172.039 16.6667 171.533 16.48C171.053 16.2933 170.426 16.2 169.653 16.2C168.693 16.2 167.826 16.3333 167.053 16.6C166.279 16.84 165.666 17.12 165.213 17.44V29.8L169.613 30.2V32.8H156.213V30.16Z" fill="#14162E"></path><path d="M180.271 7.12C179.231 7.12 178.391 6.81333 177.751 6.2C177.111 5.58667 176.791 4.8 176.791 3.84C176.791 2.72 177.138 1.8 177.831 1.08C178.551 0.36 179.511 0 180.711 0C181.911 0 182.831 0.306667 183.471 0.92C184.111 1.53333 184.431 2.32 184.431 3.28C184.431 4.42667 184.071 5.36 183.351 6.08C182.631 6.77333 181.618 7.12 180.311 7.12H180.271ZM177.831 14.76L175.151 14V11L183.151 10.04H183.231L184.471 10.88V29.8L186.871 30.16V32.8H175.351V30.16L177.831 29.8V14.76Z" fill="#14162E"></path><path d="M196.409 33.16C194.649 33.16 193.342 32.76 192.489 31.96C191.662 31.1333 191.249 29.8667 191.249 28.16V13.92H188.809V11.6L189.609 11.28C190.249 11.0667 190.809 10.84 191.289 10.6C191.822 10.0933 192.249 9.42667 192.569 8.6C192.969 7.64 193.409 6.29333 193.889 4.56H197.609L197.849 10.56H203.569V13.92H197.929V24.52C197.929 25.9867 197.969 27.0133 198.049 27.6C198.129 28.1867 198.276 28.5733 198.489 28.76C198.729 28.92 199.156 29 199.769 29C201.022 29 202.209 28.7867 203.329 28.36L204.169 30.88C203.422 31.4933 202.316 32.0267 200.849 32.48C199.382 32.9333 197.902 33.16 196.409 33.16Z" fill="#14162E"></path><path d="M209.897 42.76C209.337 42.76 208.751 42.72 208.137 42.64C207.551 42.56 207.124 42.4533 206.857 42.32V37.52C207.044 37.6533 207.444 37.7733 208.057 37.88C208.671 38.0133 209.231 38.08 209.737 38.08C211.097 38.08 212.177 37.6533 212.977 36.8C213.777 35.9467 214.511 34.6133 215.177 32.8H212.857L205.377 13.6L203.617 13.12V10.56H215.417V13.12L212.617 13.6L215.937 24.24L217.137 28.28L218.097 24.24L221.177 13.56L218.777 13.12V10.56H227.817V13.12L225.897 13.56C224.777 17 223.404 21.04 221.777 25.68C220.177 30.32 219.284 32.8533 219.097 33.28C218.297 35.4933 217.484 37.2667 216.657 38.6C215.857 39.96 214.911 40.9867 213.817 41.68C212.724 42.4 211.417 42.76 209.897 42.76Z" fill="#14162E"></path></mask><g mask="url(#mask0_1_2343)"><ellipse cx="192" cy="20.7998" rx="38" ry="40" fill="#FE8F1F"></ellipse></g><path d="M3.46484 23.034C3.47788 23.0328 3.49085 23.0322 3.50329 23.0322C3.49025 23.0328 3.47728 23.0334 3.46484 23.0346V23.034Z" fill="url(#paint0_linear_1_2343)"></path><path d="M11.296 18.5024H10.5009C10.5009 18.5024 2.3814 17.7485 2.42942 19.2764C2.46753 20.4902 2.39051 21.7094 2.20506 22.9176C2.16522 23.1774 2.14453 23.4434 2.14453 23.7144V27.7603V27.903L2.14965 27.9139C2.17406 28.3809 2.30856 28.8362 2.54489 29.2414L3.04097 30.0921C3.48211 30.8485 3.71452 31.7085 3.71452 32.5842V34.946C3.71452 35.4184 4.09739 35.8012 4.56972 35.8012H14.0748C14.5472 35.8012 14.93 35.4184 14.93 34.946V32.5846C14.93 31.7153 15.2048 30.8681 15.715 30.1641C16.2253 29.4602 16.5 28.613 16.5 27.7436V23.7064C16.4999 20.8323 14.17 18.5024 11.296 18.5024Z" fill="url(#paint1_linear_1_2343)"></path><path d="M16.5004 23.7059V27.7432C16.5004 28.1784 16.4317 28.6073 16.2991 29.0154C16.1665 29.4242 15.9701 29.8122 15.7154 30.1641C15.2053 30.8678 14.9305 31.7146 14.9305 32.5842V34.9453C14.9305 35.418 14.5473 35.8011 14.0754 35.8011H4.56974C4.09781 35.8011 3.71468 35.418 3.71468 34.9453V32.5835C3.71468 31.7104 3.48353 30.8532 3.04492 30.0981L3.71468 31.2468H6.11539C6.97118 31.2468 7.7457 30.8997 8.3065 30.3389C8.8673 29.7781 9.21432 29.0036 9.21432 28.1478C9.21432 27.3261 8.88812 26.5377 8.3065 25.956L6.98362 24.6339C6.67758 24.3271 6.71782 23.8191 7.06896 23.5644L9.53699 21.7765C10.0859 21.3788 10.3893 20.7507 10.3893 20.1059C10.3893 19.93 10.3666 19.7527 10.3203 19.5784C10.2919 19.4715 10.5273 18.502 10.5273 18.502H11.2964C14.1705 18.502 16.5004 20.8319 16.5004 23.7059Z" fill="url(#paint2_linear_1_2343)"></path><path d="M4.32829 15.8731C5.09808 15.8802 5.75965 16.3737 6.08625 17.0903C6.22587 17.3962 6.30456 17.7436 6.30456 18.1104C6.30456 18.1317 6.30456 18.1524 6.30396 18.1737L6.26491 19.7707L6.02412 19.8974L3.71587 21.1127C3.1437 21.4139 2.6987 21.8879 2.43071 22.4518L2.29814 18.2164C2.2579 16.9311 3.18334 15.8631 4.32829 15.8731Z" fill="url(#paint3_linear_1_2343)"></path><path d="M8.04706 15.1163C9.11631 15.1288 9.96539 15.9595 9.96539 16.9589C9.96539 17.0033 9.96359 17.0476 9.96007 17.0926L9.83462 18.7789C9.4429 18.4646 8.8855 18.3907 8.40917 18.6416L6.26423 19.7706L6.02344 19.8972L6.08556 17.0901L6.09328 16.9092C6.11809 15.9033 6.98852 15.1045 8.04706 15.1163Z" fill="url(#paint4_linear_1_2343)"></path><path d="M3.71445 31.2461L2.54483 29.2404C2.28269 28.7909 2.14453 28.2797 2.14453 27.7593V23.7134C2.14453 22.6219 2.74923 21.6202 3.71512 21.1117L8.40904 18.6409C9.07554 18.29 9.89974 18.5744 10.2081 19.2616C10.6081 20.1528 10.3277 21.2025 9.53663 21.7756L7.06847 23.5638C6.71727 23.8182 6.67689 24.3265 6.9836 24.6331L8.30628 25.9558C8.88743 26.5369 9.21396 27.3252 9.21396 28.1471C9.21396 29.8586 7.82649 31.2461 6.11496 31.2461H3.71445Z" fill="url(#paint5_linear_1_2343)"></path><path d="M29.5345 23.034C29.5216 23.0328 29.5085 23.0322 29.4961 23.0322C29.5091 23.0328 29.5221 23.0334 29.5345 23.0346V23.034Z" fill="url(#paint6_linear_1_2343)"></path><path d="M21.7039 18.5024H22.499C22.499 18.5024 30.6185 17.7485 30.5705 19.2764C30.5324 20.4902 30.6094 21.7094 30.7948 22.9176C30.8347 23.1774 30.8554 23.4434 30.8554 23.7144V27.7603V27.903L30.8502 27.9139C30.8258 28.3809 30.6913 28.8362 30.455 29.2414L29.9589 30.0921C29.5178 30.8485 29.2854 31.7085 29.2854 32.5842V34.946C29.2854 35.4184 28.9025 35.8012 28.4302 35.8012H18.9251C18.4528 35.8012 18.0699 35.4184 18.0699 34.946V32.5846C18.0699 31.7153 17.7952 30.8681 17.285 30.1641C16.7747 29.4602 16.5 28.613 16.5 27.7436V23.7064C16.5 20.8323 18.8299 18.5024 21.7039 18.5024Z" fill="url(#paint7_linear_1_2343)"></path><path d="M16.5 23.7059V27.7432C16.5 28.1784 16.5687 28.6073 16.7013 29.0154C16.8338 29.4242 17.0303 29.8122 17.285 30.1641C17.7951 30.8678 18.0699 31.7146 18.0699 32.5842V34.9453C18.0699 35.418 18.4531 35.8011 18.925 35.8011H28.4306C28.9026 35.8011 29.2857 35.418 29.2857 34.9453V32.5835C29.2857 31.7104 29.5169 30.8532 29.9555 30.0981L29.2857 31.2468H26.885C26.0292 31.2468 25.2547 30.8997 24.6939 30.3389C24.1331 29.7781 23.7861 29.0036 23.7861 28.1478C23.7861 27.3261 24.1123 26.5377 24.6939 25.956L26.0168 24.6339C26.3228 24.3271 26.2826 23.8191 25.9314 23.5644L23.4634 21.7765C22.9144 21.3788 22.6111 20.7507 22.6111 20.1059C22.6111 19.93 22.6337 19.7527 22.6801 19.5784C22.7085 19.4715 22.473 18.502 22.473 18.502H21.704C18.8299 18.502 16.5 20.8319 16.5 23.7059Z" fill="url(#paint8_linear_1_2343)"></path><path d="M29.2857 31.2468H26.885C26.0292 31.2468 25.2547 30.8997 24.6939 30.3389C24.1331 29.7781 23.7861 29.0036 23.7861 28.1478C23.7861 27.3261 24.1123 26.5377 24.6939 25.956L26.0168 24.6339C26.3228 24.3271 26.2826 23.8191 25.9314 23.5644L23.4634 21.7765C22.9144 21.3788 22.6111 20.7507 22.6111 20.1059C22.6111 19.93 22.6337 19.7527 22.6801 19.5784C22.7085 19.4715 22.473 18.502 22.473 18.502H21.704C18.8299 18.502 16.5 20.8319 16.5 23.7059V27.7432C16.5 28.1784 16.5687 28.6073 16.7013 29.0154C16.7381 29.1289 16.7804 29.2407 16.8269 29.3506L23.2774 35.8011H28.4307C28.9026 35.8011 29.2858 35.4179 29.2858 34.9453V32.5835C29.2858 31.7104 29.5169 30.8532 29.9555 30.0981L29.2857 31.2468Z" fill="url(#paint9_linear_1_2343)"></path><path d="M28.6735 15.8731C27.9037 15.8802 27.2422 16.3737 26.9156 17.0903C26.776 17.3962 26.6973 17.7436 26.6973 18.1104C26.6973 18.1317 26.6973 18.1524 26.6979 18.1737L26.7369 19.7707L26.9777 19.8974L29.286 21.1127C29.8581 21.4139 30.3031 21.8879 30.5711 22.4518L30.7037 18.2164C30.7439 16.9311 29.8185 15.8631 28.6735 15.8731Z" fill="url(#paint10_linear_1_2343)"></path><path d="M24.9535 15.1163C23.8842 15.1288 23.0352 15.9595 23.0352 16.9589C23.0352 17.0033 23.037 17.0476 23.0405 17.0926L23.1659 18.7789C23.5576 18.4646 24.115 18.3907 24.5914 18.6416L26.7363 19.7706L26.9771 19.8972L26.915 17.0901L26.9073 16.9092C26.8825 15.9033 26.012 15.1045 24.9535 15.1163Z" fill="url(#paint11_linear_1_2343)"></path><path d="M29.2859 31.2471L30.4555 29.2414C30.7177 28.7918 30.8558 28.2807 30.8558 27.7603V23.7144C30.8558 22.6228 30.2511 21.6212 29.2852 21.1127L24.5913 18.6418C23.9248 18.291 23.1006 18.5754 22.7922 19.2626C22.3923 20.1538 22.6726 21.2034 23.4637 21.7766L25.9319 23.5648C26.2831 23.8192 26.3235 24.3275 26.0168 24.6341L24.6941 25.9568C24.1129 26.5379 23.7864 27.3262 23.7864 28.1481C23.7864 29.8596 25.1739 31.2471 26.8854 31.2471H29.2859Z" fill="url(#paint12_linear_1_2343)"></path><path d="M6.99805 23.8154L15.0019 31.8193C15.114 31.224 15.3559 30.6574 15.7151 30.162C15.9698 29.8101 16.1662 29.4221 16.2988 29.0133C16.4313 28.6052 16.5 28.1762 16.5 27.7411V23.8154H6.99805Z" fill="url(#paint13_linear_1_2343)"></path><path d="M16.4998 29.3099C15.9009 29.3099 15.301 29.1681 14.765 28.8999C13.1451 28.0892 9.98178 26.3508 6.99779 23.8166C3.11595 20.52 0.815086 16.9814 0.159101 13.2993C-0.350481 10.4389 0.377009 7.51887 2.15506 5.28791C3.80174 3.22178 6.13513 2.01438 8.72548 1.88813C8.8778 1.88068 9.03212 1.87695 9.18405 1.87695C11.611 1.87695 13.902 2.81224 15.6351 4.51053C15.9482 4.81731 16.2368 5.14284 16.4997 5.48447C16.7627 5.14284 17.0513 4.81724 17.3644 4.5104C19.0975 2.81224 21.3886 1.87695 23.8156 1.87695C23.9675 1.87695 24.1219 1.88074 24.2742 1.88813C26.8645 2.01438 29.198 3.22178 30.8446 5.28804C32.6227 7.519 33.3501 10.439 32.8405 13.2993C32.1846 16.9814 29.8837 20.52 26.0019 23.8167C23.0179 26.3508 19.8547 28.0892 18.2347 28.8999C17.6986 29.1682 17.0987 29.3099 16.4998 29.3099Z" fill="url(#paint14_linear_1_2343)"></path><path d="M30.844 5.28866C30.2267 4.51414 29.513 3.86036 28.7255 3.33887C30.1633 5.47404 30.7208 8.12059 30.2579 10.7181C29.602 14.4001 27.3012 17.9387 23.4193 21.2354C20.4354 23.7695 17.2722 25.508 15.6521 26.3187C15.1161 26.5869 14.5162 26.7287 13.9173 26.7287C13.3183 26.7287 12.7184 26.5869 12.1824 26.3187C10.5626 25.508 7.39925 23.7696 4.41525 21.2354C4.28741 21.1269 4.16156 21.018 4.03711 20.9089C4.89171 21.8969 5.87835 22.8672 6.99716 23.8173C9.98115 26.3515 13.1445 28.0899 14.7643 28.9006C15.3004 29.1688 15.9003 29.3106 16.4992 29.3106C17.0981 29.3106 17.698 29.1689 18.234 28.9006C19.854 28.0899 23.0172 26.3514 26.0012 23.8173C29.883 20.5206 32.1839 16.982 32.8398 13.3C33.3495 10.4396 32.6221 7.51962 30.844 5.28866Z" fill="url(#paint15_linear_1_2343)"></path><path d="M24.2743 1.88813C24.122 1.88074 23.9677 1.87695 23.8157 1.87695C21.3888 1.87695 19.0977 2.81224 17.3646 4.51047C17.0516 4.81724 16.7629 5.14277 16.5 5.4844V29.3099C17.0989 29.3099 17.6988 29.1682 18.2348 28.8999C19.8549 28.0892 23.0181 26.3507 26.002 23.8166C29.8838 20.52 32.1847 16.9813 32.8406 13.2993C33.3503 10.4389 32.6228 7.51893 30.8448 5.28798C29.1981 3.22178 26.8646 2.01438 24.2743 1.88813Z" fill="url(#paint16_linear_1_2343)"></path><path d="M29.2859 31.2451L30.4555 29.2395C30.7177 28.7899 30.8558 28.2788 30.8558 27.7583V23.7124C30.8558 22.6209 30.2511 21.6192 29.2852 21.1108L24.5913 18.6399C23.9248 18.2891 23.1006 18.5734 22.7922 19.2606C22.3923 20.1519 22.6726 21.2015 23.4637 21.7747L25.9319 23.5628C26.2831 23.8172 26.3235 24.3255 26.0168 24.6321L24.6941 25.9548C24.1129 26.536 23.7864 27.3243 23.7864 28.1461C23.7864 29.8577 25.1739 31.2451 26.8854 31.2451H29.2859Z" fill="url(#paint17_linear_1_2343)"></path><path d="M3.71445 31.2451L2.54483 29.2395C2.28269 28.7899 2.14453 28.2788 2.14453 27.7583V23.7124C2.14453 22.6209 2.74923 21.6192 3.71511 21.1108L8.40904 18.6399C9.07553 18.2891 9.89974 18.5734 10.2081 19.2606C10.6081 20.1519 10.3277 21.2015 9.53662 21.7747L7.06847 23.5628C6.71726 23.8172 6.67689 24.3255 6.98359 24.6321L8.30627 25.9548C8.88742 26.536 9.21395 27.3243 9.21395 28.1461C9.21395 29.8577 7.82649 31.2451 6.11496 31.2451H3.71445Z" fill="url(#paint18_linear_1_2343)"></path><path d="M3.71445 31.2451L2.54483 29.2395C2.28269 28.7899 2.14453 28.2788 2.14453 27.7583V23.7124C2.14453 22.6209 2.74923 21.6192 3.71511 21.1108L8.40904 18.6399C9.07553 18.2891 9.89974 18.5734 10.2081 19.2606C10.6081 20.1519 10.3277 21.2015 9.53662 21.7747L7.06847 23.5628C6.71726 23.8172 6.67689 24.3255 6.98359 24.6321L8.30627 25.9548C8.88742 26.536 9.21395 27.3243 9.21395 28.1461C9.21395 29.8577 7.82649 31.2451 6.11496 31.2451H3.71445Z" fill="url(#paint19_linear_1_2343)"></path><path d="M29.2859 31.2451L30.4555 29.2395C30.7177 28.7899 30.8558 28.2788 30.8558 27.7583V23.7124C30.8558 22.6209 30.2511 21.6192 29.2852 21.1108L24.5913 18.6399C23.9248 18.2891 23.1006 18.5734 22.7922 19.2606C22.3923 20.1519 22.6726 21.2015 23.4637 21.7747L25.9319 23.5628C26.2831 23.8172 26.3235 24.3255 26.0168 24.6321L24.6941 25.9548C24.1129 26.536 23.7864 27.3243 23.7864 28.1461C23.7864 29.8577 25.1739 31.2451 26.8854 31.2451H29.2859Z" fill="url(#paint20_linear_1_2343)"></path><defs><linearGradient id="paint0_linear_1_2343" x1="3.4701" y1="23.0306" x2="3.51109" y2="23.0388" gradientUnits="userSpaceOnUse"><stop stop-color="#FCB37E"></stop><stop offset="1" stop-color="#8C6239"></stop></linearGradient><linearGradient id="paint1_linear_1_2343" x1="0.140858" y1="20.3079" x2="19.8114" y2="36.0444" gradientUnits="userSpaceOnUse"><stop stop-color="#FFDECF"></stop><stop offset="1" stop-color="#FAA68E"></stop></linearGradient><linearGradient id="paint2_linear_1_2343" x1="13.6951" y1="30.2218" x2="8.68545" y2="27.2431" gradientUnits="userSpaceOnUse"><stop stop-color="#FAA68E" stop-opacity="0"></stop><stop offset="1" stop-color="#FAA68E"></stop></linearGradient><linearGradient id="paint3_linear_1_2343" x1="2.80606" y1="18.9313" x2="7.42123" y2="20.4363" gradientUnits="userSpaceOnUse"><stop stop-color="#FFDECF"></stop><stop offset="1" stop-color="#FAA68E"></stop></linearGradient><linearGradient id="paint4_linear_1_2343" x1="6.30467" y1="17.341" x2="12.2232" y2="18.5346" gradientUnits="userSpaceOnUse"><stop stop-color="#FFDECF"></stop><stop offset="1" stop-color="#FAA68E"></stop></linearGradient><linearGradient id="paint5_linear_1_2343" x1="5.03414" y1="20.0779" x2="7.52085" y2="27.9901" gradientUnits="userSpaceOnUse"><stop stop-color="#FFDECF"></stop><stop offset="1" stop-color="#FAA68E" stop-opacity="0"></stop></linearGradient><linearGradient id="paint6_linear_1_2343" x1="29.5293" y1="23.0306" x2="29.4883" y2="23.039" gradientUnits="userSpaceOnUse"><stop stop-color="#FCB37E"></stop><stop offset="1" stop-color="#8C6239"></stop></linearGradient><linearGradient id="paint7_linear_1_2343" x1="32.859" y1="20.3079" x2="13.1885" y2="36.0444" gradientUnits="userSpaceOnUse"><stop stop-color="#FFDECF"></stop><stop offset="1" stop-color="#FAA68E"></stop></linearGradient><linearGradient id="paint8_linear_1_2343" x1="24.5064" y1="31.1359" x2="18.5918" y2="25.2213" gradientUnits="userSpaceOnUse"><stop stop-color="#FAA68E" stop-opacity="0"></stop><stop offset="1" stop-color="#B74B52"></stop></linearGradient><linearGradient id="paint9_linear_1_2343" x1="25.683" y1="29.9593" x2="19.7683" y2="24.0447" gradientUnits="userSpaceOnUse"><stop stop-color="#FAA68E" stop-opacity="0"></stop><stop offset="1" stop-color="#B74B52"></stop></linearGradient><linearGradient id="paint10_linear_1_2343" x1="30.1958" y1="18.9313" x2="25.5806" y2="20.4363" gradientUnits="userSpaceOnUse"><stop stop-color="#FFDECF"></stop><stop offset="1" stop-color="#FAA68E"></stop></linearGradient><linearGradient id="paint11_linear_1_2343" x1="26.6959" y1="17.341" x2="20.7774" y2="18.5346" gradientUnits="userSpaceOnUse"><stop stop-color="#FFDECF"></stop><stop offset="1" stop-color="#FAA68E"></stop></linearGradient><linearGradient id="paint12_linear_1_2343" x1="27.9662" y1="20.0789" x2="25.4795" y2="27.9911" gradientUnits="userSpaceOnUse"><stop stop-color="#FFDECF"></stop><stop offset="1" stop-color="#FAA68E" stop-opacity="0"></stop></linearGradient><linearGradient id="paint13_linear_1_2343" x1="15.042" y1="32.2888" x2="11.9724" y2="24.3901" gradientUnits="userSpaceOnUse"><stop stop-color="#FAA68E" stop-opacity="0"></stop><stop offset="1" stop-color="#B74B52"></stop></linearGradient><linearGradient id="paint14_linear_1_2343" x1="13.7777" y1="8.53737" x2="25.3129" y2="22.9399" gradientUnits="userSpaceOnUse"><stop stop-color="#FF7044"></stop><stop offset="1" stop-color="#F82814"></stop></linearGradient><linearGradient id="paint15_linear_1_2343" x1="20.4019" y1="19.1098" x2="25.1783" y2="29.3183" gradientUnits="userSpaceOnUse"><stop stop-color="#F82814" stop-opacity="0"></stop><stop offset="1" stop-color="#C0272D"></stop></linearGradient><linearGradient id="paint16_linear_1_2343" x1="19.2284" y1="12.7317" x2="4.04562" y2="-2.74887" gradientUnits="userSpaceOnUse"><stop stop-color="#F82814" stop-opacity="0"></stop><stop offset="1" stop-color="#C0272D"></stop></linearGradient><linearGradient id="paint17_linear_1_2343" x1="16.0921" y1="9.43262" x2="46.1146" y2="53.6053" gradientUnits="userSpaceOnUse"><stop stop-color="#FFDECF"></stop><stop offset="1" stop-color="#FAA68E"></stop></linearGradient><linearGradient id="paint18_linear_1_2343" x1="5.03413" y1="20.0769" x2="7.52085" y2="27.9892" gradientUnits="userSpaceOnUse"><stop stop-color="#FFDECF"></stop><stop offset="1" stop-color="#FAA68E"></stop></linearGradient><linearGradient id="paint19_linear_1_2343" x1="5.03413" y1="20.0769" x2="7.52085" y2="27.9892" gradientUnits="userSpaceOnUse"><stop stop-color="#FFDECF"></stop><stop offset="1" stop-color="#FAA68E" stop-opacity="0"></stop></linearGradient><linearGradient id="paint20_linear_1_2343" x1="27.9662" y1="20.0769" x2="25.4795" y2="27.9892" gradientUnits="userSpaceOnUse"><stop stop-color="#FFDECF"></stop><stop offset="1" stop-color="#FAA68E" stop-opacity="0"></stop></linearGradient></defs></svg>