<?xml version="1.0" encoding="utf-8"?>
<!-- Generator: Adobe Illustrator 15.1.0, SVG Export Plug-In . SVG Version: 6.00 Build 0)  -->
<!DOCTYPE svg PUBLIC "-//W3C//DTD SVG 1.1//EN" "http://www.w3.org/Graphics/SVG/1.1/DTD/svg11.dtd">
<svg version="1.1" id="Layer_1" xmlns="http://www.w3.org/2000/svg" xmlns:xlink="http://www.w3.org/1999/xlink" x="0px" y="0px"
	 width="441.308px" height="139.306px" viewBox="0 0 441.308 139.306" enable-background="new 0 0 441.308 139.306"
	 xml:space="preserve">
<g>
	<path fill="none" d="M102.189,20.842c-1.097-0.325-2.21-0.611-3.336-0.861c1.37,1.012,2.696,2.08,3.978,3.201
		c2.808,1.576,5.478,3.366,7.996,5.344C108.247,25.641,105.353,23.058,102.189,20.842z"/>
	<path fill="none" d="M56.931,29.559C45.25,38.766,37.73,53.026,37.73,69.018c0,17.089,8.583,32.203,21.659,41.282
		c4.44,1.285,9.115,1.979,13.931,1.979c3.034,0,6.096-0.284,9.111-0.831c4.824-0.884,9.354-2.446,13.528-4.549
		c12.284-11.3,18.705-28.459,15.484-46.055c-2.034-11.107-7.618-20.794-15.445-27.982C89,29.158,81.033,27.05,72.58,27.05
		C67.116,27.05,61.859,27.938,56.931,29.559z"/>
	<path fill="none" d="M38.852,114.496c1.95,1.015,3.973,1.902,6.057,2.656c-3.313-1.714-6.458-3.719-9.398-5.988
		C36.572,112.325,37.686,113.438,38.852,114.496z"/>
	<path fill="none" d="M27.383,82.236c-0.929-4.262-1.432-8.682-1.432-13.218c0-4.817,0.57-9.5,1.614-14.004
		c-1.868,3.759-3.284,7.779-4.165,11.996c0.136,1.352,0.311,2.707,0.56,4.065C24.677,74.988,25.842,78.722,27.383,82.236z"/>
	<path fill="none" d="M134.427,72.911c0.102,1.449,0.172,2.906,0.172,4.38c0,4.813-0.569,9.492-1.611,13.992
		c3.335-6.715,5.22-14.272,5.22-22.265c0-7.169-1.52-13.986-4.238-20.163c0.145,0.665,0.29,1.33,0.413,2.003
		C135.757,58.365,135.702,65.807,134.427,72.911z"/>
	<path fill="none" d="M102.036,117.235c0.537-0.156,1.07-0.321,1.6-0.495c0.817-0.645,1.617-1.31,2.392-2.002
		c-1.085,0.674-2.19,1.32-3.322,1.929C102.485,116.859,102.259,117.046,102.036,117.235z"/>
	<path fill="#E97900" d="M27.383,82.236c5.99,13.664,17.77,23.945,32.006,28.064C46.313,101.221,37.73,86.107,37.73,69.018
		c0-15.992,7.521-30.252,19.201-39.459c-12.847,4.223-23.42,13.49-29.366,25.455c-1.044,4.504-1.614,9.188-1.614,14.004
		C25.951,73.554,26.454,77.974,27.383,82.236z"/>
	<path fill="#F68620" d="M96.311,121.561c2.587-1.393,5.033-3.013,7.325-4.82c-0.529,0.174-1.063,0.339-1.6,0.495
		C100.216,118.778,98.311,120.229,96.311,121.561z"/>
	<path fill="#F68620" d="M90.499,14.769c2.926,1.514,5.716,3.262,8.354,5.212c1.126,0.25,2.239,0.537,3.336,0.861
		C98.599,18.326,94.67,16.279,90.499,14.769z"/>
	<path fill="#E97900" d="M149.985,69.018c0-27.438-17.917-50.755-42.658-58.907c13.272,8.692,23.095,22.393,26.643,38.744
		c2.718,6.176,4.238,12.994,4.238,20.163c0,7.993-1.885,15.55-5.22,22.265c-3.398,14.669-12.004,27.359-23.771,36.004
		C132.979,118.594,149.985,95.754,149.985,69.018z"/>
	<path fill="#50B848" d="M102.705,116.667c1.132-0.608,2.237-1.255,3.322-1.929c8.64-7.726,14.594-18.387,16.289-30.402
		C119.284,96.909,112.379,108.224,102.705,116.667z"/>
	<path fill="#69BE28" d="M73.32,112.279c-4.816,0-9.491-0.695-13.931-1.979c-14.236-4.119-26.016-14.4-32.006-28.064
		c-1.541-3.514-2.706-7.248-3.423-11.162c-0.249-1.359-0.424-2.714-0.56-4.065c-0.693,3.32-1.062,6.759-1.062,10.282
		c0,13.04,4.996,24.933,13.172,33.873c2.94,2.269,6.085,4.274,9.398,5.988c5.347,1.937,11.094,2.99,17.053,2.99
		c3.032,0,6.101-0.277,9.11-0.832c9.653-1.77,18.15-6.211,24.889-12.411c-4.174,2.104-8.704,3.665-13.528,4.549
		C79.416,111.995,76.354,112.279,73.32,112.279z"/>
	<path fill="#69BE28" d="M62.087,7.86c10.177,0,19.854,2.481,28.412,6.908c4.171,1.511,8.1,3.558,11.69,6.073
		c3.163,2.216,6.058,4.799,8.637,7.683c13.381,10.517,22.339,26.401,23.601,44.386c1.274-7.104,1.33-14.546-0.044-22.053
		c-0.124-0.674-0.269-1.338-0.413-2.003c-3.548-16.352-13.37-30.052-26.643-38.744C97.528,3.694,85.858,0,73.443,0
		c-3.744,0-7.522,0.349-11.236,1.029c-11.335,2.076-21.38,7.139-29.494,14.214c5.542-2.977,11.625-5.162,18.138-6.354
		C54.562,8.212,58.342,7.86,62.087,7.86z"/>
	<path fill="#50B848" d="M38.699,25.387c-14.244,7.477-24.091,21.459-26.392,37.339C16.064,47.181,25.687,33.909,38.699,25.387z"/>
	<path fill="#DE3831" d="M35.51,111.164c-8.176-8.939-13.172-20.833-13.172-33.873c0-3.523,0.369-6.962,1.062-10.282
		c0.881-4.217,2.297-8.237,4.165-11.996c5.946-11.964,16.519-21.232,29.366-25.455c4.928-1.62,10.186-2.509,15.649-2.509
		c8.454,0,16.421,2.108,23.418,5.812c-8.996-8.261-20.955-13.22-33.911-13.22c-3.034,0-6.103,0.277-9.114,0.829
		c-5.11,0.936-9.899,2.619-14.274,4.916c-13.012,8.522-22.635,21.794-26.392,37.339c-0.761,5.252-0.71,10.708,0.298,16.209
		c2.877,15.714,12.854,28.592,26.247,35.56C37.686,113.438,36.572,112.325,35.51,111.164z"/>
	<path fill="#DE3831" d="M132.988,91.283c1.042-4.5,1.611-9.179,1.611-13.992c0-1.474-0.07-2.931-0.172-4.38
		c-1.262-17.985-10.22-33.87-23.601-44.386c-2.518-1.978-5.188-3.768-7.996-5.344c10.251,8.964,17.588,21.304,20.195,35.539
		c1.607,8.773,1.258,17.457-0.71,25.616c-1.694,12.015-7.648,22.676-16.289,30.402c-0.775,0.692-1.575,1.357-2.392,2.002
		c-2.292,1.808-4.737,3.428-7.325,4.82c-6.796,4.524-14.592,7.776-23.117,9.339c-3.708,0.674-7.488,1.021-11.232,1.021
		c-10.738,0-20.917-2.769-29.814-7.666c10.866,9.368,24.994,15.052,40.433,15.052c13.696,0,26.364-4.472,36.638-12.019
		C120.984,118.642,129.59,105.952,132.988,91.283z"/>
	<path fill="#6AADE4" d="M73.193,130.899c8.525-1.563,16.321-4.814,23.117-9.339c2-1.332,3.906-2.782,5.725-4.325
		c0.223-0.189,0.449-0.376,0.669-0.568c9.674-8.443,16.579-19.758,19.611-32.331c1.968-8.16,2.317-16.843,0.71-25.616
		c-2.607-14.234-9.944-26.574-20.195-35.539c-1.282-1.121-2.608-2.189-3.978-3.201c-2.638-1.95-5.428-3.698-8.354-5.212
		C81.942,10.341,72.264,7.86,62.087,7.86c-3.745,0-7.525,0.352-11.236,1.028c-6.513,1.192-12.596,3.377-18.138,6.354
		C9.635,27.642-3.945,53.936,1.02,81.062c3.458,18.889,15.239,34.448,31.127,43.192c8.896,4.897,19.076,7.666,29.814,7.666
		C65.705,131.92,69.485,131.573,73.193,130.899z M12.605,78.936c-1.008-5.501-1.059-10.958-0.298-16.209
		c2.301-15.88,12.148-29.863,26.392-37.339c4.375-2.297,9.164-3.98,14.274-4.916c3.012-0.552,6.08-0.829,9.114-0.829
		c12.956,0,24.915,4.959,33.911,13.22c7.827,7.188,13.411,16.875,15.445,27.982c3.221,17.596-3.2,34.755-15.484,46.055
		c-6.739,6.199-15.236,10.641-24.889,12.411c-3.009,0.555-6.078,0.832-9.11,0.832c-5.959,0-11.706-1.054-17.053-2.99
		c-2.083-0.754-4.106-1.641-6.057-2.656C25.459,107.527,15.482,94.649,12.605,78.936z"/>
</g>
<g>
	<path fill="#BBAFA4" d="M186.674,105.527h-5.997c-0.238,0-0.375,0.136-0.375,0.409v18.876c0,0.409-0.205,0.613-0.58,0.613h-3.305
		c-0.375,0-0.58-0.204-0.58-0.613v-18.876c0-0.272-0.136-0.409-0.375-0.409h-5.997c-0.409,0-0.613-0.205-0.613-0.613v-2.044
		c0-0.443,0.205-0.613,0.613-0.613h17.207c0.409,0,0.613,0.204,0.613,0.613v2.044C187.288,105.357,187.083,105.527,186.674,105.527z
		"/>
	<path fill="#BBAFA4" d="M202.175,125.698c-7.394,0-11.244-4.702-11.244-11.823c0-6.883,3.578-11.925,11.244-11.925
		c7.394,0,11.278,4.702,11.278,11.823C213.454,120.655,209.876,125.698,202.175,125.698z M202.175,105.187
		c-4.021,0-6.576,2.93-6.576,8.621c0,5.486,2.214,8.688,6.576,8.688c4.225,0,6.61-3.202,6.61-8.654
		C208.786,108.117,206.4,105.187,202.175,105.187z"/>
	<path fill="#BBAFA4" d="M236.314,124.881c-1.193,0.408-3.237,0.817-5.656,0.817c-7.496,0-12.232-3.782-12.232-11.38
		c0-7.7,4.498-12.368,12.266-12.368c2.658,0,4.634,0.409,6.031,0.954c0.954,0.375,1.09,0.613,1.09,1.124v2.215
		c0,0.375-0.136,0.545-0.511,0.545c-0.613,0-2.146-1.533-5.895-1.533c-5.417,0-8.348,3.203-8.348,9.063
		c0,5.316,2.658,8.177,7.905,8.177c1.874,0,2.453-0.307,2.453-0.852v-6.304c0-0.442,0.239-0.613,0.613-0.613h3.169
		c0.375,0,0.613,0.17,0.613,0.613v8.28C237.813,124.131,237.608,124.472,236.314,124.881z"/>
	<path fill="#BBAFA4" d="M258.459,125.426h-13.186c-0.409,0-0.613-0.238-0.613-0.613V102.87c0-0.443,0.204-0.613,0.613-0.613h12.504
		c0.443,0,0.613,0.17,0.613,0.613v2.044c0,0.443-0.17,0.613-0.613,0.613h-8.279c-0.205,0-0.341,0.136-0.341,0.409v5.281
		c0,0.205,0.136,0.409,0.375,0.409h6.474c0.409,0,0.613,0.17,0.613,0.613v2.044c0,0.477-0.205,0.647-0.613,0.647h-6.474
		c-0.238,0-0.375,0.136-0.375,0.409v6.406c0,0.272,0.136,0.409,0.409,0.409h8.893c0.443,0,0.613,0.17,0.613,0.613v2.044
		C259.072,125.222,258.902,125.426,258.459,125.426z"/>
	<path fill="#BBAFA4" d="M280.162,105.527h-5.996c-0.24,0-0.375,0.136-0.375,0.409v18.876c0,0.409-0.205,0.613-0.58,0.613h-3.305
		c-0.375,0-0.58-0.204-0.58-0.613v-18.876c0-0.272-0.136-0.409-0.374-0.409h-5.997c-0.409,0-0.613-0.205-0.613-0.613v-2.044
		c0-0.443,0.205-0.613,0.613-0.613h17.207c0.408,0,0.613,0.204,0.613,0.613v2.044C280.775,105.357,280.57,105.527,280.162,105.527z"
		/>
	<path fill="#BBAFA4" d="M303.771,125.426h-3.27c-0.375,0-0.58-0.204-0.58-0.613v-9.336c0-0.272-0.137-0.409-0.375-0.409h-9.166
		c-0.238,0-0.375,0.137-0.375,0.409v9.336c0,0.409-0.203,0.613-0.613,0.613h-3.27c-0.41,0-0.613-0.204-0.613-0.613V102.87
		c0-0.409,0.203-0.613,0.613-0.613h3.27c0.375,0,0.613,0.204,0.613,0.613v8.45c0,0.272,0.137,0.409,0.375,0.409h9.166
		c0.238,0,0.375-0.136,0.375-0.409v-8.45c0-0.409,0.205-0.613,0.58-0.613h3.27c0.41,0,0.613,0.204,0.613,0.613v21.943
		C304.384,125.222,304.181,125.426,303.771,125.426z"/>
	<path fill="#BBAFA4" d="M325.339,125.426h-13.188c-0.408,0-0.613-0.238-0.613-0.613V102.87c0-0.443,0.205-0.613,0.613-0.613h12.506
		c0.441,0,0.613,0.17,0.613,0.613v2.044c0,0.443-0.172,0.613-0.613,0.613h-8.281c-0.203,0-0.34,0.136-0.34,0.409v5.281
		c0,0.205,0.137,0.409,0.375,0.409h6.473c0.41,0,0.613,0.17,0.613,0.613v2.044c0,0.477-0.203,0.647-0.613,0.647h-6.473
		c-0.238,0-0.375,0.136-0.375,0.409v6.406c0,0.272,0.137,0.409,0.408,0.409h8.895c0.441,0,0.613,0.17,0.613,0.613v2.044
		C325.953,125.222,325.781,125.426,325.339,125.426z"/>
	<path fill="#BBAFA4" d="M348.505,125.426h-3.885c-0.441,0-0.682-0.137-0.92-0.511l-6.338-9.608
		c-0.203-0.307-0.34-0.375-0.613-0.375h-0.34c-0.205,0-0.34,0.136-0.34,0.375v9.506c0,0.409-0.205,0.613-0.58,0.613h-3.271
		c-0.375,0-0.578-0.204-0.578-0.613V102.87c0-0.409,0.203-0.613,0.613-0.613h6.336c3.102,0,4.602,0.307,5.998,1.125
		c1.432,0.852,2.418,2.249,2.418,4.634c0,3.646-2.01,5.554-4.871,6.167c-0.205,0.034-0.342,0.136-0.342,0.239
		c0,0.102,0.035,0.204,0.137,0.34l6.781,9.608c0.238,0.307,0.307,0.478,0.307,0.682
		C349.017,125.256,348.812,125.426,348.505,125.426z M338.283,104.948h-1.84c-0.203,0-0.34,0.103-0.34,0.375v6.44
		c0,0.238,0.137,0.375,0.375,0.375h1.84c2.658,0,4.156-1.261,4.156-3.714C342.474,106.072,341.214,104.948,338.283,104.948z"/>
</g>
<g>
	<g>
		<path fill="#82786F" d="M199.455,88.465h-31.139v-3.921h5v-32.73h-5v-3.921h30.344v10.171h-4.262v-6.25h-16.309v13.467h15.57
			l-0.625,3.921h-14.945v15.342h17.047v-7.16h4.318V88.465z"/>
		<path fill="#82786F" d="M215.537,62.894h-2.5l5.057,7.217l4.944-7.217h-2.273v-3.75h12.729v3.75h-5.171l-7.614,10.513
			l8.125,11.308h5v3.75h-12.842v-3.75h2.444l-5.455-7.898l-5.512,7.898h2.955v3.75h-12.786v-3.75h4.489l8.239-11.137l-7.728-10.683
			h-4.887v-3.75h12.785V62.894z"/>
		<path fill="#82786F" d="M256.679,86.476c-2.216,1.42-4.433,2.273-7.501,2.273c-5.114,0-8.012-2.955-8.012-8.637V62.837h-5.114
			v-3.694h5.171l1.989-7.898h2.728v7.898h9.49v3.694h-9.49v16.876c0,3.807,1.136,5.398,4.148,5.398c2.103,0,3.466-0.625,5.058-1.478
			L256.679,86.476z"/>
		<path fill="#82786F" d="M276.285,88.465h-17.446v-3.75h5v-21.82h-5v-3.75h8.637l0.625,5.228c2.557-3.978,4.887-5.739,8.922-5.739
			c2.387,0,4.432,0.795,5.967,1.989V71.19h-4.092v-7.898c-0.625-0.455-1.705-0.682-2.613-0.682c-3.41,0-5.456,2.614-7.672,5.91
			v16.195h7.672V88.465z"/>
		<path fill="#82786F" d="M311.914,85.226c-2.84,2.159-6.705,3.523-11.023,3.523c-8.238,0-13.75-5.058-13.75-15.059
			c0-8.921,5.738-15.058,13.92-15.058c6.592,0,10.854,3.58,10.854,8.637c0,5.853-5.17,7.16-12.842,8.581l-6.535,1.25
			c0.854,4.66,3.637,7.956,8.639,7.956c3.408,0,6.477-1.25,9.205-3.012L311.914,85.226z M298.277,72.611
			c5.91-1.136,8.75-2.045,8.75-5.285c0-3.068-2.5-5.114-5.967-5.114c-5.738,0-8.807,5.057-8.807,11.535L298.277,72.611z"/>
		<path fill="#82786F" d="M316.689,88.465v-3.75h5v-21.82h-5v-3.75h8.637l0.455,3.978c2.557-2.671,4.943-4.489,8.75-4.489
			c4.318,0,6.592,1.989,7.672,4.603c2.215-2.33,4.773-4.603,8.92-4.603c5.398,0,8.523,2.955,8.523,9.376v16.706h5.002v3.75h-9.773
			V68.292c0-3.637-1.535-5.91-4.83-5.91c-2.387,0-4.717,1.875-7.047,4.318c0,0.455,0.057,0.909,0.057,1.307v16.706h5v3.75h-9.773
			V68.292c0-3.637-1.533-5.91-4.83-5.91c-2.5,0-4.717,2.045-6.988,4.375v17.956h5v3.75H316.689z"/>
		<path fill="#82786F" d="M391.982,85.226c-2.84,2.159-6.705,3.523-11.023,3.523c-8.238,0-13.75-5.058-13.75-15.059
			c0-8.921,5.738-15.058,13.92-15.058c6.592,0,10.854,3.58,10.854,8.637c0,5.853-5.17,7.16-12.842,8.581l-6.535,1.25
			c0.854,4.66,3.637,7.956,8.639,7.956c3.408,0,6.477-1.25,9.205-3.012L391.982,85.226z M378.345,72.611
			c5.91-1.136,8.75-2.045,8.75-5.285c0-3.068-2.5-5.114-5.967-5.114c-5.738,0-8.807,5.057-8.807,11.535L378.345,72.611z"/>
		<path fill="#82786F" d="M411.531,88.465h-14.773v-3.75h5V49.427h-5v-3.75h9.773v39.038h5V88.465z"/>
		<path fill="#82786F" d="M441.308,85.794c0,9.376-4.49,14.945-14.15,14.945c-3.295,0-5.908-0.568-8.41-1.648l1.309-3.239
			c2.613,0.966,4.658,1.307,7.102,1.307c6.535,0,9.377-4.432,9.377-11.365v-3.466c-2.842,3.409-5.625,6.421-10.514,6.421
			c-5.227,0-8.238-2.784-8.238-8.978V62.894h-4.547v-3.75h9.32v20.514c0,3.58,1.25,5.341,4.488,5.341c3.125,0,6.25-3.239,9.49-6.762
			V62.894h-5v-3.75h9.773V85.794z"/>
	</g>
</g>
</svg>
