<svg xmlns="http://www.w3.org/2000/svg" width="55" height="55" viewBox="0 0 55 55" fill="none"><g clip-path="url(#clip0_2519_169)"><path d="M18.4252 11.7867H36.5748L41.0336 2.84943C41.2396 2.43619 41.2935 1.96356 41.1857 1.51455C41.078 1.06554 40.8155 0.668848 40.4443 0.394134C40.0717 0.116266 39.6125 -0.0204357 39.1486 0.00833669C38.6846 0.037109 38.2459 0.229491 37.9104 0.551273C36.6252 1.55365 35.0201 2.0561 33.3927 1.96552C31.7746 2.0551 30.1782 1.56015 28.8946 0.570915C28.5266 0.205074 28.0287 -0.000270387 27.5098 -0.000270387C26.9909 -0.000270387 26.493 0.205074 26.125 0.570915C24.837 1.56628 23.2322 2.06168 21.6073 1.96552C19.9892 2.0551 18.3928 1.56015 17.1092 0.570915C16.7791 0.238253 16.3409 0.03458 15.8738 -0.00332682C15.4067 -0.0412336 14.9414 0.089124 14.562 0.364208C14.1825 0.639292 13.914 1.04097 13.8048 1.49672C13.6955 1.95247 13.7529 2.43225 13.9664 2.84943L18.4252 11.7867Z" fill="#43B9AB"></path><path d="M37.7926 15.7151H17.2074C13.0039 20.8025 5.8934 30.8986 5.8934 41.2502C5.8934 50.2267 12.7289 54.9998 17.6788 54.9998H37.3212C42.2711 54.9998 49.1066 50.2267 49.1066 41.2502C49.1066 30.8986 41.9961 20.8025 37.7926 15.7151ZM29.4642 43.2144V45.1787C29.4642 45.6996 29.2573 46.1992 28.8889 46.5676C28.5206 46.9359 28.021 47.1429 27.5 47.1429C26.9791 47.1429 26.4794 46.9359 26.1111 46.5676C25.7427 46.1992 25.5358 45.6996 25.5358 45.1787V43.2144C24.5041 43.2116 23.4912 42.938 22.5984 42.421C21.7056 41.9039 20.9642 41.1615 20.4484 40.2681C20.2867 40.0458 20.1735 39.7921 20.1161 39.5233C20.0587 39.2545 20.0583 38.9767 20.1149 38.7077C20.1716 38.4388 20.2841 38.1847 20.4451 37.962C20.6061 37.7393 20.8121 37.5528 21.0497 37.4147C21.2873 37.2765 21.5512 37.1898 21.8245 37.1601C22.0977 37.1303 22.3741 37.1583 22.6359 37.2421C22.8976 37.3259 23.1389 37.4637 23.344 37.6466C23.5492 37.8295 23.7137 38.0534 23.8269 38.3038C23.9999 38.6036 24.2491 38.8523 24.5492 39.0247C24.8493 39.1972 25.1897 39.2873 25.5358 39.2859H29.4642C29.9852 39.2859 30.4848 39.079 30.8532 38.7106C31.2215 38.3423 31.4285 37.8426 31.4285 37.3217C31.4285 36.8008 31.2215 36.3011 30.8532 35.9328C30.4848 35.5644 29.9852 35.3575 29.4642 35.3575H25.5358C23.9729 35.3575 22.4741 34.7366 21.369 33.6315C20.2639 32.5264 19.6431 31.0276 19.6431 29.4648C19.6431 27.9019 20.2639 26.4031 21.369 25.298C22.4741 24.1929 23.9729 23.572 25.5358 23.572V21.6078C25.5358 21.0869 25.7427 20.5872 26.1111 20.2189C26.4794 19.8505 26.9791 19.6436 27.5 19.6436C28.021 19.6436 28.5206 19.8505 28.8889 20.2189C29.2573 20.5872 29.4642 21.0869 29.4642 21.6078V23.572C30.4959 23.5748 31.5088 23.8484 32.4016 24.3655C33.2944 24.8825 34.0358 25.6249 34.5516 26.5184C34.7133 26.7407 34.8265 26.9944 34.8839 27.2632C34.9414 27.5319 34.9418 27.8098 34.8851 28.0787C34.8284 28.3477 34.7159 28.6017 34.5549 28.8244C34.3939 29.0472 34.1879 29.2336 33.9503 29.3718C33.7127 29.5099 33.4488 29.5967 33.1755 29.6264C32.9023 29.6561 32.6259 29.6282 32.3641 29.5444C32.1024 29.4606 31.8611 29.3228 31.656 29.1399C31.4508 28.957 31.2863 28.7331 31.1731 28.4826C31.0001 28.1829 30.7509 27.9342 30.4508 27.7617C30.1507 27.5892 29.8104 27.4991 29.4642 27.5005H25.5358C25.0148 27.5005 24.5152 27.7075 24.1468 28.0758C23.7785 28.4442 23.5715 28.9438 23.5715 29.4648C23.5715 29.9857 23.7785 30.4853 24.1468 30.8537C24.5152 31.222 25.0148 31.429 25.5358 31.429H29.4642C31.0271 31.429 32.5259 32.0498 33.631 33.1549C34.7361 34.26 35.357 35.7589 35.357 37.3217C35.357 38.8845 34.7361 40.3834 33.631 41.4885C32.5259 42.5936 31.0271 43.2144 29.4642 43.2144Z" fill="#43B9AB"></path></g><defs><clipPath id="clip0_2519_169"><rect width="55" height="55" fill="white"></rect></clipPath></defs></svg>