<svg xmlns="http://www.w3.org/2000/svg" width="55" height="55" viewBox="0 0 55 55" fill="none"><path d="M16.7654 20.5949C16.7654 24.3002 13.7616 27.304 10.0562 27.304C6.35084 27.304 3.34705 24.3002 3.34705 20.5949C3.34705 16.8895 6.35084 13.8857 10.0562 13.8857C13.7616 13.8857 16.7654 16.8895 16.7654 20.5949Z" fill="#63A9FB"></path><path fill-rule="evenodd" clip-rule="evenodd" d="M10.0562 27.304C13.7616 27.304 16.7654 24.3002 16.7654 20.5949C16.7654 16.8895 13.7616 13.8857 10.0562 13.8857C6.35084 13.8857 3.34705 16.8895 3.34705 20.5949C3.34705 24.3002 6.35084 27.304 10.0562 27.304Z" fill="#63A9FB"></path><path d="M51.653 20.5949C51.653 24.3002 48.6492 27.304 44.9438 27.304C41.2385 27.304 38.2347 24.3002 38.2347 20.5949C38.2347 16.8895 41.2385 13.8857 44.9438 13.8857C48.6492 13.8857 51.653 16.8895 51.653 20.5949Z" fill="#63A9FB"></path><path fill-rule="evenodd" clip-rule="evenodd" d="M44.9438 27.304C48.6492 27.304 51.653 24.3002 51.653 20.5949C51.653 16.8895 48.6492 13.8857 44.9438 13.8857C41.2385 13.8857 38.2347 16.8895 38.2347 20.5949C38.2347 24.3002 41.2385 27.304 44.9438 27.304Z" fill="#63A9FB"></path><path d="M38.2347 13.8858C38.2347 19.8144 33.4285 24.6204 27.5 24.6204C21.5714 24.6204 16.7654 19.8144 16.7654 13.8858C16.7654 7.95719 21.5714 3.15112 27.5 3.15112C33.4285 3.15112 38.2347 7.95719 38.2347 13.8858Z" fill="#63A9FB"></path><path fill-rule="evenodd" clip-rule="evenodd" d="M27.5 24.6204C33.4285 24.6204 38.2347 19.8144 38.2347 13.8858C38.2347 7.95719 33.4285 3.15112 27.5 3.15112C21.5714 3.15112 16.7654 7.95719 16.7654 13.8858C16.7654 19.8144 21.5714 24.6204 27.5 24.6204Z" fill="#63A9FB"></path><path fill-rule="evenodd" clip-rule="evenodd" d="M4.68888 43.4061H2.15433C1.3309 43.4061 0.663391 42.7387 0.663391 41.9151V41.3539C0.663391 35.0766 5.75218 29.9878 12.0295 29.9878H12.889C12.9624 29.9878 13.0356 29.9883 13.1087 29.9897C8.53766 32.4442 4.68888 37.4036 4.68888 43.4061Z" fill="#63A9FB"></path><path fill-rule="evenodd" clip-rule="evenodd" d="M7.30371 31.0138C3.38546 32.8075 0.663391 36.7627 0.663391 41.3539V41.9151C0.663391 42.6882 1.25181 43.324 2.00522 43.3989C2.05425 43.4037 2.10401 43.4061 2.15433 43.4061H4.68888C4.68888 39.4281 6.37921 35.9082 8.84993 33.2721C9.80979 32.248 10.8874 31.3573 12.0295 30.6246C12.3123 30.4432 12.5991 30.2717 12.889 30.1099C12.962 30.0694 13.0353 30.0291 13.1087 29.9897C13.0356 29.9883 12.9624 29.9878 12.889 29.9878H12.0295C10.3433 29.9878 8.74282 30.3549 7.30371 31.0138Z" fill="#63A9FB"></path><path fill-rule="evenodd" clip-rule="evenodd" d="M50.3111 43.4061H52.8456C53.6692 43.4061 54.3366 42.7387 54.3366 41.9151V41.3539C54.3366 35.0766 49.2479 29.9878 42.9705 29.9878H42.1109C42.0377 29.9878 41.9644 29.9883 41.8914 29.9897C46.4625 32.4442 50.3111 37.4036 50.3111 43.4061Z" fill="#63A9FB"></path><path fill-rule="evenodd" clip-rule="evenodd" d="M47.6962 31.0138C51.6146 32.8075 54.3366 36.7627 54.3366 41.3539V41.9151C54.3366 42.6882 53.7481 43.324 52.9948 43.3989C52.9457 43.4037 52.896 43.4061 52.8456 43.4061H50.3111C50.3111 39.4281 48.6207 35.9082 46.1501 33.2721C45.1902 32.248 44.1127 31.3573 42.9705 30.6246C42.6877 30.4432 42.401 30.2717 42.1109 30.1099C42.0379 30.0694 41.9647 30.0291 41.8914 29.9897C41.9644 29.9883 42.0377 29.9878 42.1109 29.9878H42.9705C44.6567 29.9878 46.2572 30.3549 47.6962 31.0138Z" fill="#63A9FB"></path><path d="M6.0307 48.7735C6.0307 36.9163 15.6428 27.3042 27.5 27.3042C39.3572 27.3042 48.9693 36.9163 48.9693 48.7735V51.4572C48.9693 52.9393 47.7678 54.1408 46.2856 54.1408H8.71436C7.23223 54.1408 6.0307 52.9393 6.0307 51.4572V48.7735Z" fill="#63A9FB"></path></svg>