<svg xmlns="http://www.w3.org/2000/svg" width="55" height="55" viewBox="0 0 55 55" fill="none"><path d="M49.1564 21.7708C47.3231 21.7708 45.8037 23.1458 45.6215 24.9688L44.7335 33.8536L40.5787 38.0084L40.982 35.1897C41.2089 33.5981 40.2682 32.0753 38.7442 31.5665C37.2317 31.0624 35.5645 31.7086 34.7888 33.1054L30.5137 40.8009C30.0416 41.6499 29.7918 42.6113 29.7918 43.5841V51.5626C29.7918 52.1951 30.304 52.7084 30.9377 52.7084H42.396C42.7787 52.7084 43.1362 52.5171 43.3493 52.1985L51.746 39.6023C52.3751 38.6593 52.7085 37.5604 52.7085 36.4237V25.3229C52.7085 23.3646 51.1146 21.7708 49.1564 21.7708Z" fill="#8F76D7"></path><path d="M11.6508 52.1986C11.864 52.5171 12.2215 52.7085 12.6042 52.7085H24.0625C24.6961 52.7085 25.2083 52.1951 25.2083 51.5626V43.5842C25.2083 42.6125 24.9585 41.65 24.4876 40.8009L20.2125 33.1066C18.4468 29.9235 13.4968 31.5849 14.0193 35.1897L14.4226 38.0096L10.2667 33.8537L9.37864 24.9688C8.86187 20.5413 2.37761 20.8564 2.29167 25.3229V36.4238C2.29167 37.5605 2.62511 38.6593 3.25417 39.6012L11.6508 52.1986Z" fill="#8F76D7"></path><path d="M15.0012 21.733L26.7552 31.8072C27.1826 32.175 27.8174 32.175 28.246 31.8072L39.9999 21.733C42.9791 19.179 44.6876 15.4642 44.6876 11.5397C44.7838 3.42147 34.5584 -0.816961 28.9002 5.00043L27.5 6.40064L26.0998 5.00043C20.4462 -0.814669 10.2116 3.42033 10.3125 11.5397C10.3125 15.4642 12.0209 19.179 15.0012 21.733Z" fill="#8F76D7"></path></svg>