<svg xmlns="http://www.w3.org/2000/svg" width="53" height="55" viewBox="0 0 53 55" fill="none"><path d="M51.4837 33.0642C51.4792 33.0596 51.4746 33.055 51.47 33.0504L48.2479 30.0896C48.3464 29.2187 48.3946 28.3502 48.3946 27.5C48.3946 26.6498 48.3464 25.7812 48.2479 24.9104L51.4837 21.9358C52.8244 20.6754 53.1337 18.6725 52.2217 17.0431L48.4221 10.4706C47.5192 8.86875 45.5712 8.10791 43.7837 8.66479L39.6083 9.9825C38.2035 8.92146 36.7025 8.05062 35.1304 7.38375L34.1633 3.09146C33.7554 1.27187 32.1719 0 30.311 0H22.689C20.8281 0 19.2446 1.27187 18.8367 3.09146L17.8696 7.38375C16.2975 8.05062 14.7987 8.92146 13.3917 9.9825L9.20937 8.6625C7.42416 8.10333 5.47625 8.86875 4.58708 10.4523L0.766875 17.066C-0.13375 18.6725 0.175625 20.6754 1.53 21.9496L4.75208 24.9104C4.65354 25.7812 4.60312 26.6498 4.60312 27.5C4.60312 28.3502 4.65125 29.2187 4.74979 30.0896L1.51396 33.0642C0.173333 34.3246 -0.136042 36.3275 0.776042 37.9569L4.57562 44.5294C5.47625 46.1312 7.42187 46.8875 9.21395 46.3352L13.3894 45.0175C14.7942 46.0785 16.2952 46.9494 17.8673 47.6162L18.8344 51.9085C19.2446 53.7281 20.8281 55 22.689 55H30.311C32.1719 55 33.7554 53.7281 34.1633 51.9085L35.1304 47.614C36.7048 46.9471 38.2035 46.0762 39.6083 45.0152L43.7906 46.3352C45.5735 46.8898 47.5214 46.1267 48.4129 44.5454L52.2354 37.934C53.1337 36.3275 52.8244 34.3246 51.4837 33.0642ZM31.175 38.7085C31.175 40.1065 30.0292 41.2523 28.6083 41.2523H24.3917C23.1542 41.2523 21.825 40.3356 21.825 38.296V37.0585H31.175V38.7085ZM33.0312 31.9252C32.0687 32.7044 31.45 33.7127 31.2437 34.7669H21.7792C21.6187 33.7356 21.0458 32.7731 20.1062 32.0398C17.5625 30.046 16.1187 27.044 16.1875 23.7898C16.3021 18.3356 20.8625 13.821 26.3396 13.7523C29.1125 13.6835 31.7708 14.7606 33.7646 16.7315C35.7354 18.6565 36.8125 21.246 36.8125 23.996C36.8125 27.0898 35.4398 29.9773 33.0312 31.9252Z" fill="#FE8F1F"></path></svg>